<svg width="1300" height="900" viewBox="0 0 1300 900" fill="none" xmlns="http://www.w3.org/2000/svg">
<g clip-path="url(#clip0)">
<rect width="1300" height="900" fill="url(#paint0_linear)"/>
<path d="M581.548 540.997C561.877 565.583 540.034 592.57 524.71 611.438C507.67 560.208 530.428 488.623 555.816 435.106C561.992 468.383 570.454 503.603 581.548 540.997Z" fill="white"/>
<path d="M701.399 351.4C726.673 375.643 749.317 420.927 732.277 491.712C716.953 490.454 695.224 488.738 675.554 486.909C686.761 436.593 695.224 391.653 701.399 351.4Z" fill="#602A9E"/>
<path opacity="0.2" d="M647.078 603.549C788.315 60.8295 672.123 14.7452 628.208 -3.78003C584.294 65.518 468.102 245.739 609.568 625.162L647.078 603.549Z" fill="url(#paint1_linear)"/>
<path opacity="0.1" d="M605.45 572.33C746.801 29.7245 630.61 -16.3598 586.581 -34.9993C542.666 34.2987 426.474 214.519 567.94 593.943L605.45 572.33Z" fill="url(#paint2_linear)"/>
<path opacity="0.15" d="M609.568 625.162C468.102 245.739 584.294 65.518 628.209 -3.78003V614.413L609.568 625.162Z" fill="url(#paint3_linear)"/>
<path opacity="0.1" d="M586.009 187.304C586.009 220.352 605.45 235.904 629.466 222.067C653.482 208.23 672.924 170.151 672.924 137.103C672.924 104.055 653.482 88.5028 629.466 102.339C605.45 116.176 586.009 154.256 586.009 187.304Z" fill="#F7F8FB"/>
<path opacity="0.1" d="M628.551 997.037C604.993 1048.84 569.884 1093.44 530.658 1116.08C459.754 1157.02 402.23 1110.82 402.115 1012.93C402.115 915.046 459.639 802.408 530.543 761.47C553.873 747.976 575.716 743.974 594.586 748.09C604.535 731.852 609.339 711.269 613.57 693.201C618.488 672.389 622.605 654.664 632.897 650.204C644.676 645.058 649.937 658.095 657.371 676.162C661.716 686.797 666.863 699.376 674.41 710.926C682.53 702.349 691.107 695.259 700.142 690.113C737.996 668.272 769.559 687.14 776.993 732.195C782.139 728.307 787.285 724.762 792.546 721.675C853.272 686.683 902.448 726.363 902.448 810.527C902.448 894.577 853.272 991.091 792.661 1026.08C733.764 1060.05 685.618 1023.57 682.873 944.549C671.78 965.133 657.028 982.4 640.674 991.777C636.671 994.064 632.554 995.779 628.551 997.037Z" fill="url(#paint4_linear)"/>
<path opacity="0.3" d="M480.453 373.585L170.761 552.319L170.647 713.672L452.892 550.718L480.224 559.638L480.453 373.585Z" fill="url(#paint5_linear)"/>
<path d="M260.878 580.677V536.88L144 604.349V648.146L260.878 580.677Z" fill="#7137A8"/>
<path opacity="0.1" d="M400.743 458.778L332.926 498.001V512.181L400.743 473.072V458.778Z" fill="#F7F8FB"/>
<path opacity="0.1" d="M400.742 487.137L278.261 557.807V571.987L400.742 501.316V487.137Z" fill="#F7F8FB"/>
<path opacity="0.15" d="M400.743 515.497L242.352 606.98V621.159L400.743 529.677V515.497Z" fill="#F7F8FB"/>
<path d="M417.439 463.923C417.439 477.188 425.33 483.477 435.051 477.874C444.771 472.271 452.662 456.947 452.662 443.682C452.662 430.418 444.771 424.128 435.051 429.731C425.33 435.335 417.439 450.658 417.439 463.923Z" fill="white"/>
<path opacity="0.3" d="M747.487 145.68L1057.06 -32.9401L1056.95 128.412L774.705 291.251L747.373 331.732L747.487 145.68Z" fill="url(#paint6_linear)"/>
<path d="M1090 29.9531V-13.8441L973.123 53.6242V97.4215L1090 29.9531Z" fill="#B268CE"/>
<path opacity="0.15" d="M827.083 139.046L894.9 99.9373V114.117L827.083 153.226V139.046Z" fill="#F7F8FB"/>
<path opacity="0.15" d="M826.969 167.406L957.684 91.9326V106.112L826.969 181.585V167.406Z" fill="#F7F8FB"/>
<path opacity="0.15" d="M826.969 195.766L985.36 104.284V118.463L826.969 209.946V195.766Z" fill="#F7F8FB"/>
<path d="M810.272 163.403C810.272 176.668 802.381 191.992 792.66 197.595C782.939 203.198 775.048 196.909 775.048 183.644C775.048 170.379 782.939 155.056 792.66 149.452C802.495 143.963 810.386 150.138 810.272 163.403Z" fill="#B268CE"/>
<path opacity="0.2" d="M788.658 317.895L973.581 211.204V307.489L788.658 414.181V317.895Z" fill="url(#paint7_linear)"/>
<path opacity="0.15" d="M926.234 261.633L862.878 298.226V309.776L926.234 273.183V261.633Z" fill="#F7F8FB"/>
<path opacity="0.15" d="M926.12 284.847L807.642 353.23V364.894L926.12 296.511V284.847Z" fill="#F7F8FB"/>
<path d="M935.956 265.064C935.956 272.954 940.644 276.728 946.477 273.412C952.309 270.096 956.998 260.947 956.998 252.943C956.998 245.052 952.309 241.279 946.477 244.595C940.644 248.025 935.956 257.174 935.956 265.064Z" fill="#B268CE"/>
<path opacity="0.2" d="M239.378 390.623L424.301 283.932V380.217L239.378 487.023V390.623Z" fill="url(#paint8_linear)"/>
<path opacity="0.15" d="M376.955 334.475L313.599 371.068V382.618L376.955 346.025V334.475Z" fill="#F7F8FB"/>
<path opacity="0.15" d="M376.955 357.69L258.476 426.073V437.737L376.955 369.354V357.69Z" fill="#F7F8FB"/>
<path d="M386.676 337.906C386.676 345.796 391.365 349.57 397.198 346.254C403.03 342.938 407.719 333.789 407.719 325.785C407.719 317.894 403.03 314.121 397.198 317.437C391.365 320.753 386.676 330.016 386.676 337.906Z" fill="white"/>
</g>
<defs>
<linearGradient id="paint0_linear" x1="-180.781" y1="872.5" x2="1278.67" y2="1063.21" gradientUnits="userSpaceOnUse">
<stop stop-color="#C778DB"/>
<stop offset="1" stop-color="#3E1089"/>
</linearGradient>
<linearGradient id="paint1_linear" x1="463.38" y1="15.4617" x2="818.835" y2="631.337" gradientUnits="userSpaceOnUse">
<stop stop-color="white"/>
<stop offset="1" stop-color="white" stop-opacity="0"/>
</linearGradient>
<linearGradient id="paint2_linear" x1="421.763" y1="-15.7488" x2="777.217" y2="600.127" gradientUnits="userSpaceOnUse">
<stop stop-color="white"/>
<stop offset="1" stop-color="white" stop-opacity="0"/>
</linearGradient>
<linearGradient id="paint3_linear" x1="529.673" y1="149.753" x2="804.068" y2="644.897" gradientUnits="userSpaceOnUse">
<stop stop-color="white" stop-opacity="0"/>
<stop offset="1" stop-color="white"/>
</linearGradient>
<linearGradient id="paint4_linear" x1="555.49" y1="747.082" x2="709.018" y2="1013.09" gradientUnits="userSpaceOnUse">
<stop stop-color="white"/>
<stop offset="1" stop-color="white" stop-opacity="0"/>
</linearGradient>
<linearGradient id="paint5_linear" x1="347.398" y1="378.81" x2="307.377" y2="703.42" gradientUnits="userSpaceOnUse">
<stop stop-color="white"/>
<stop offset="1" stop-color="white" stop-opacity="0"/>
</linearGradient>
<linearGradient id="paint6_linear" x1="814.96" y1="81.0707" x2="974.808" y2="206.236" gradientUnits="userSpaceOnUse">
<stop stop-color="white"/>
<stop offset="1" stop-color="white" stop-opacity="0"/>
</linearGradient>
<linearGradient id="paint7_linear" x1="860.244" y1="276.53" x2="901.941" y2="348.776" gradientUnits="userSpaceOnUse">
<stop stop-color="white"/>
<stop offset="1" stop-color="white" stop-opacity="0"/>
</linearGradient>
<linearGradient id="paint8_linear" x1="311.007" y1="349.345" x2="352.707" y2="421.594" gradientUnits="userSpaceOnUse">
<stop stop-color="white"/>
<stop offset="1" stop-color="white" stop-opacity="0"/>
</linearGradient>
<clipPath id="clip0">
<rect width="1300" height="900" fill="white"/>
</clipPath>
</defs>
</svg>
