<svg width="1300" height="900" viewBox="0 0 1300 900" fill="none" xmlns="http://www.w3.org/2000/svg">
<g clip-path="url(#clip0)">
<rect width="1300" height="900" fill="url(#paint0_linear)"/>
<path opacity="0.07" d="M469.411 132.758C466.576 134.379 464.011 138.296 463.606 141.809L400.561 663.656C400.021 668.114 402.721 670.141 406.366 668.114L749.538 469.939C753.048 467.913 755.883 462.644 755.343 458.862L692.162 9.82711C691.757 6.72007 689.327 5.77445 686.357 7.39552L469.411 132.758Z" fill="url(#paint1_linear)"/>
<path opacity="0.4" d="M558.106 140.188C558.106 85.3421 590.237 22.2557 629.792 -0.709374C669.347 -23.5394 701.477 2.39767 701.477 57.2437L685.952 66.1595V66.0244C685.952 22.9311 660.707 2.53275 629.657 20.4995C598.607 38.4663 573.362 88.0439 573.362 131.137V131.272L558.106 140.188Z" fill="url(#paint2_linear)"/>
<path opacity="0.4" d="M515.717 170.582C516.122 167.07 518.552 163.152 521.522 161.531L738.333 36.1691C741.168 34.548 743.733 35.4936 744.138 38.6007L807.318 487.5C807.858 491.283 805.158 496.551 801.513 498.578L458.476 696.753C454.966 698.779 452.131 696.753 452.671 692.295L515.717 170.582Z" fill="url(#paint3_linear)"/>
<path opacity="0.3" d="M709.577 239.207L1111.2 7.12488L1111.07 216.647L744.948 428.196L709.442 480.746L709.577 239.207Z" fill="url(#paint4_linear)"/>
<path d="M1154 88.8541V31.9818L1002.39 119.519V176.392L1154 88.8541Z" fill="#FB9D76"/>
<path opacity="0.15" d="M812.853 230.563L900.873 179.769V198.141L812.853 248.935V230.563Z" fill="#F7F8FB"/>
<path opacity="0.15" d="M812.853 267.306L982.549 169.367V187.739L812.853 285.679V267.306Z" fill="#F7F8FB"/>
<path opacity="0.15" d="M812.718 304.185L1018.32 185.442V203.814L812.718 322.557V304.185Z" fill="#F7F8FB"/>
<path d="M791.118 262.173C791.118 279.464 780.858 299.322 768.302 306.617C755.747 313.912 745.487 305.806 745.487 288.515C745.487 271.224 755.747 251.366 768.302 244.071C780.993 236.776 791.118 244.881 791.118 262.173Z" fill="white"/>
<path opacity="0.3" d="M662.732 479.53L260.97 711.478L260.835 921L627.092 709.451L662.462 721.069L662.732 479.53Z" fill="url(#paint5_linear)"/>
<path d="M377.881 748.492V691.62L226.275 779.157V836.029L377.881 748.492Z" fill="white"/>
<path opacity="0.15" d="M559.456 590.168L471.436 640.962V659.334L559.456 608.54V590.168Z" fill="#F7F8FB"/>
<path opacity="0.15" d="M559.322 627.047L400.426 718.773V737.145L559.322 645.419V627.047Z" fill="#F7F8FB"/>
<path opacity="0.15" d="M559.322 663.792L353.716 782.535V800.907L559.322 682.164V663.792Z" fill="#F7F8FB"/>
<path d="M581.057 596.788C581.057 614.079 591.317 622.184 603.872 614.89C616.427 607.595 626.687 587.737 626.687 570.445C626.687 553.154 616.427 545.049 603.872 552.344C591.317 559.638 581.057 579.631 581.057 596.788Z" fill="#F0654D"/>
<path opacity="0.2" d="M1083.93 424.684L808.803 583.548V438.463L1083.93 279.599V424.684Z" fill="url(#paint6_linear)"/>
<path d="M864.693 451.161C864.693 439.139 857.673 433.6 849.033 438.463C840.393 443.461 833.373 457.241 833.373 469.128C833.373 481.151 840.393 486.69 849.033 481.827C857.673 476.828 864.693 463.184 864.693 451.161Z" fill="#FB9D76"/>
<path opacity="0.15" d="M878.868 489.662L1055.72 387.535V369.163L878.868 471.29V489.662Z" fill="#F7F8FB"/>
<path opacity="0.15" d="M879.273 451.973L959.734 405.502V387.13L879.273 433.601V451.973Z" fill="#F7F8FB"/>
<path opacity="0.2" d="M123 618.131L398.131 459.267V604.352L123 763.216V618.131Z" fill="url(#paint7_linear)"/>
<path opacity="0.15" d="M328.066 535.592L260.565 574.633V593.005L328.066 553.964V535.592Z" fill="#F7F8FB"/>
<path opacity="0.15" d="M327.661 571.932L182.4 655.686V674.058L327.526 590.168L327.661 571.932Z" fill="#F7F8FB"/>
<path d="M342.241 538.159C342.241 550.182 349.261 555.721 357.901 550.858C366.541 545.859 373.561 532.08 373.561 520.193C373.561 508.17 366.541 502.631 357.901 507.494C349.261 512.357 342.241 526.137 342.241 538.159Z" fill="white"/>
<path opacity="0.2" d="M825.003 783.48C916.263 666.223 850.248 624.075 825.003 692.7C799.758 653.389 733.742 771.727 825.003 783.48Z" fill="url(#paint8_linear)"/>
<path opacity="0.2" d="M315.915 237.857C307.815 242.45 301.335 253.797 301.335 263.118V304.32L274.065 319.991C265.965 324.584 259.485 335.931 259.485 345.387C259.485 354.708 265.965 358.491 274.065 353.898L301.335 338.228V379.43C301.335 388.751 307.815 392.533 315.915 387.94C324.015 383.347 330.495 372 330.495 362.544V321.342L357.765 305.671C365.865 301.078 372.345 289.731 372.345 280.41C372.345 271.089 365.865 267.306 357.765 271.899L330.63 287.434V246.232C330.63 236.911 324.015 233.129 315.915 237.857Z" fill="url(#paint9_linear)"/>
</g>
<defs>
<linearGradient id="paint0_linear" x1="-148" y1="522" x2="1240.36" y2="1055.26" gradientUnits="userSpaceOnUse">
<stop stop-color="#FFB186"/>
<stop offset="1" stop-color="#E63226"/>
</linearGradient>
<linearGradient id="paint1_linear" x1="386.282" y1="272.539" x2="742.085" y2="417.299" gradientUnits="userSpaceOnUse">
<stop stop-color="white"/>
<stop offset="1" stop-color="white" stop-opacity="0"/>
</linearGradient>
<linearGradient id="paint2_linear" x1="595.642" y1="48.1814" x2="826.213" y2="256.967" gradientUnits="userSpaceOnUse">
<stop stop-color="white"/>
<stop offset="1" stop-color="white" stop-opacity="0"/>
</linearGradient>
<linearGradient id="paint3_linear" x1="438.627" y1="221.58" x2="669.198" y2="430.365" gradientUnits="userSpaceOnUse">
<stop stop-color="white"/>
<stop offset="1" stop-color="white" stop-opacity="0"/>
</linearGradient>
<linearGradient id="paint4_linear" x1="797.138" y1="155.256" x2="1004.67" y2="317.642" gradientUnits="userSpaceOnUse">
<stop stop-color="white"/>
<stop offset="1" stop-color="white" stop-opacity="0"/>
</linearGradient>
<linearGradient id="paint5_linear" x1="490.055" y1="486.272" x2="438.052" y2="907.783" gradientUnits="userSpaceOnUse">
<stop stop-color="white"/>
<stop offset="1" stop-color="white" stop-opacity="0"/>
</linearGradient>
<linearGradient id="paint6_linear" x1="977.766" y1="486.004" x2="914.91" y2="377.178" gradientUnits="userSpaceOnUse">
<stop stop-color="white" stop-opacity="0"/>
<stop offset="1" stop-color="white"/>
</linearGradient>
<linearGradient id="paint7_linear" x1="229.168" y1="556.81" x2="292.025" y2="665.638" gradientUnits="userSpaceOnUse">
<stop stop-color="white"/>
<stop offset="1" stop-color="white" stop-opacity="0"/>
</linearGradient>
<linearGradient id="paint8_linear" x1="805.827" y1="697.159" x2="873.147" y2="755.407" gradientUnits="userSpaceOnUse">
<stop stop-color="white"/>
<stop offset="1" stop-color="white" stop-opacity="0"/>
</linearGradient>
<linearGradient id="paint9_linear" x1="287.721" y1="290.541" x2="358.439" y2="346.314" gradientUnits="userSpaceOnUse">
<stop stop-color="white"/>
<stop offset="1" stop-color="white" stop-opacity="0"/>
</linearGradient>
<clipPath id="clip0">
<rect width="1300" height="900" fill="white"/>
</clipPath>
</defs>
</svg>
