<svg width="1300" height="900" viewBox="0 0 1300 900" fill="none" xmlns="http://www.w3.org/2000/svg">
<g clip-path="url(#clip0)">
<rect width="1300" height="900" fill="url(#paint0_linear)"/>
<path opacity="0.07" d="M312.723 267.5C281.794 240.971 262.761 191.602 262.761 124.983C262.761 -11.8226 342.938 -169.09 441.672 -225.002C540.525 -281.033 619.274 -215.366 618.322 -77.4896C617.846 -11.9416 599.051 58.3648 568.717 119.511C545.283 166.62 529.937 219.201 524.822 268.095C522.8 289.032 510.31 310.683 495.916 319.01L385.524 382.655C371.012 391.101 358.64 383.487 356.38 365.048C351.384 322.103 336.157 287.842 312.723 267.5Z" fill="url(#paint1_linear)"/>
<path opacity="0.07" d="M358.521 493.527V464.263C358.521 448.56 367.562 430.834 378.863 424.054L502.816 352.439C514.117 345.896 523.157 353.271 523.157 368.974V398.239C523.157 421.793 510.786 447.965 494.608 460.813L386.833 523.03C370.774 529.097 358.521 516.844 358.521 493.527Z" fill="url(#paint2_linear)"/>
<path d="M372.201 314.846C341.273 288.318 322.24 238.949 322.24 172.33C322.24 35.5241 402.416 -121.743 501.15 -177.656C600.003 -233.687 678.752 -168.02 677.801 -30.1429C677.325 35.4051 658.53 105.712 628.196 166.858C604.761 213.967 589.416 266.548 584.301 315.441C582.279 336.378 569.788 358.029 555.394 366.357L445.003 430.001C430.49 438.448 418.119 430.834 415.858 412.395C410.862 369.45 395.636 335.07 372.201 314.846Z" fill="url(#paint3_linear)" fill-opacity="0.6"/>
<path d="M418 540.874V511.609C418 495.906 427.04 478.181 438.341 471.4L562.294 399.785C573.595 393.242 582.635 400.618 582.635 416.321V445.586C582.635 469.14 570.264 495.312 554.086 508.159L446.311 570.376C430.252 576.443 418 564.19 418 540.874Z" fill="url(#paint4_linear)" fill-opacity="0.4"/>
<path d="M713.238 554.376L1067.25 350L1067.13 534.51L744.286 720.804L713 767.08L713.238 554.376Z" fill="url(#paint5_linear)" fill-opacity="0.4"/>
<path d="M1104.84 421.972V371.889L971.255 448.977V499.06L1104.84 421.972Z" fill="#9855BF"/>
<path opacity="0.15" d="M804.24 546.764L881.799 502.034V518.213L804.24 562.943V546.764Z" fill="#F7F8FB"/>
<path opacity="0.15" d="M804.121 579.241L953.649 492.993V509.172L804.121 595.42V579.241Z" fill="#F7F8FB"/>
<path opacity="0.15" d="M804.121 611.597L985.292 507.03V523.208L804.121 627.776V611.597Z" fill="#F7F8FB"/>
<path d="M785.088 574.719C785.088 589.946 776.047 607.433 764.984 613.857C753.921 620.281 744.881 613.143 744.881 597.916C744.881 582.689 753.921 565.202 764.984 558.778C776.047 552.354 785.088 559.492 785.088 574.719Z" fill="#532096"/>
<path d="M650.797 440.113L296.783 644.489L296.664 828.999L619.393 642.705L650.56 652.935L650.797 440.113Z" fill="url(#paint6_linear)" fill-opacity="0.7"/>
<path d="M399.799 676.966V626.883L266.211 704.089V754.172L399.799 676.966Z" fill="white"/>
<path opacity="0.15" d="M559.796 537.661L482.236 582.391V598.57L559.796 553.84V537.661Z" fill="#F7F8FB"/>
<path opacity="0.15" d="M559.795 570.02L419.784 650.795V666.974L559.795 586.199V570.02Z" fill="#F7F8FB"/>
<path opacity="0.15" d="M559.676 602.495L378.625 707.063V723.242L559.795 618.674L559.676 602.495Z" fill="#F7F8FB"/>
<path d="M578.828 543.49C578.828 558.717 587.869 565.855 598.932 559.431C609.995 553.007 619.035 535.52 619.035 520.293C619.035 505.066 609.995 497.928 598.932 504.352C587.869 510.776 578.828 528.263 578.828 543.49Z" fill="white"/>
<path opacity="0.15" d="M224.862 428.64L215.94 448.388L291.121 465.875L212.966 574.725L221.888 584.123L317.886 450.41L224.862 428.64Z" fill="#F7F8FB"/>
<path d="M200 450.768C200 466.114 209.041 473.371 220.104 467.066C231.167 460.642 240.207 443.035 240.207 427.57C240.207 412.224 231.167 404.968 220.104 411.273C208.922 417.696 200 435.422 200 450.768Z" fill="#8445B3"/>
<path d="M200 587.098C200 602.444 209.041 609.7 220.104 603.395C231.167 596.971 240.207 579.365 240.207 563.9C240.207 548.554 231.167 541.297 220.104 547.602C208.922 554.145 200 571.752 200 587.098Z" fill="#8445B3"/>
<path d="M285.768 467.661C285.768 483.007 294.809 490.263 305.872 483.958C316.935 477.534 325.975 459.928 325.975 444.463C325.975 429.117 316.935 421.86 305.872 428.165C294.809 434.47 285.768 452.315 285.768 467.661Z" fill="white"/>
<path d="M928.371 -32L729 83.0361V452.413L928.371 337.376V-32Z" fill="url(#paint7_linear)" fill-opacity="0.7"/>
<path opacity="0.15" d="M908.862 187.246L748.747 279.68V295.859L908.862 203.544V187.246Z" fill="#F7F8FB"/>
<path opacity="0.15" d="M897.68 225.314L760.048 304.781V320.96L897.68 241.493V225.314Z" fill="#F7F8FB"/>
<path d="M839.511 291.338L978.214 211.277V252.557L839.511 332.618V291.338Z" fill="white"/>
<path d="M806.084 113.251C806.084 131.096 816.433 139.542 829.162 132.166C841.89 124.672 852.239 104.21 852.239 86.2471C852.239 68.4029 841.89 59.9566 829.162 67.3322C816.433 74.8268 806.084 95.4072 806.084 113.251Z" fill="white"/>
<path d="M829.161 146.562C849.741 134.546 866.752 145.848 869.726 171.662C870.201 176.183 866.871 182.131 862.707 184.51L795.616 223.768C791.452 226.147 788.122 224.244 788.597 219.128C791.571 189.626 808.582 158.577 829.161 146.562Z" fill="white"/>
<path d="M582.906 828.912C654.875 736.36 602.772 702.813 582.906 757.06C562.922 725.891 510.938 819.396 582.906 828.912Z" fill="url(#paint8_linear)" fill-opacity="0.5"/>
</g>
<defs>
<linearGradient id="paint0_linear" x1="-180.781" y1="872.5" x2="1278.67" y2="1063.21" gradientUnits="userSpaceOnUse">
<stop stop-color="#C778DB"/>
<stop offset="1" stop-color="#3E1089"/>
</linearGradient>
<linearGradient id="paint1_linear" x1="300.941" y1="-70.9263" x2="665.015" y2="260.55" gradientUnits="userSpaceOnUse">
<stop stop-color="white"/>
<stop offset="1" stop-color="white" stop-opacity="0"/>
</linearGradient>
<linearGradient id="paint2_linear" x1="112.54" y1="135.942" x2="476.614" y2="467.419" gradientUnits="userSpaceOnUse">
<stop stop-color="white"/>
<stop offset="1" stop-color="white" stop-opacity="0"/>
</linearGradient>
<linearGradient id="paint3_linear" x1="276" y1="16" x2="666.219" y2="547.308" gradientUnits="userSpaceOnUse">
<stop stop-color="#C778DB"/>
<stop offset="1" stop-color="#3E1089"/>
</linearGradient>
<linearGradient id="paint4_linear" x1="-56" y1="26" x2="208.112" y2="739.92" gradientUnits="userSpaceOnUse">
<stop offset="0.782088" stop-color="#C778DB"/>
<stop offset="1" stop-color="#3E1089"/>
</linearGradient>
<linearGradient id="paint5_linear" x1="666.932" y1="491.202" x2="879.764" y2="928.055" gradientUnits="userSpaceOnUse">
<stop stop-color="#C778DB"/>
<stop offset="1" stop-color="#3E1089"/>
</linearGradient>
<linearGradient id="paint6_linear" x1="250.611" y1="571.769" x2="440.44" y2="989.513" gradientUnits="userSpaceOnUse">
<stop stop-color="#C778DB"/>
<stop offset="1" stop-color="#3E1089"/>
</linearGradient>
<linearGradient id="paint7_linear" x1="703.073" y1="131.997" x2="1066.39" y2="462.27" gradientUnits="userSpaceOnUse">
<stop stop-color="#C778DB"/>
<stop offset="1" stop-color="#3E1089"/>
</linearGradient>
<linearGradient id="paint8_linear" x1="530.13" y1="752.04" x2="761.791" y2="1188.1" gradientUnits="userSpaceOnUse">
<stop stop-color="#C778DB"/>
<stop offset="1" stop-color="#3E1089"/>
</linearGradient>
<clipPath id="clip0">
<rect width="1300" height="900" fill="white"/>
</clipPath>
</defs>
</svg>
