<svg width="1300" height="900" viewBox="0 0 1300 900" fill="none" xmlns="http://www.w3.org/2000/svg">
<g clip-path="url(#clip0)">
<rect width="1300" height="900" fill="url(#paint0_linear)"/>
<path opacity="0.3" d="M502.454 -460.55C512.442 -454.846 520.368 -440.903 520.368 -429.496V-123.394L611.207 -70.9505V244.816C611.207 256.224 603.122 260.819 593.293 255.115C583.306 249.411 575.379 235.469 575.379 224.061V-50.3536L484.381 -102.638V-450.251C484.381 -461.659 492.467 -466.254 502.454 -460.55Z" fill="url(#paint1_linear)"/>
<path opacity="0.3" d="M551.916 869.062C561.904 874.766 569.83 870.171 569.83 858.764V629.346L660.669 681.789V531.589C660.669 520.182 652.584 506.239 642.755 500.535C632.768 494.832 624.841 499.426 624.841 510.834V619.681L534.002 567.238V838.008C534.002 849.416 542.087 863.359 551.916 869.062Z" fill="url(#paint2_linear)"/>
<path opacity="0.3" d="M691.583 -235.884C701.571 -230.18 709.497 -216.238 709.497 -204.83V315.956C709.497 327.363 701.412 331.958 691.583 326.254C681.596 320.55 673.669 306.608 673.669 295.2V-225.586C673.669 -236.993 681.754 -241.588 691.583 -235.884Z" fill="url(#paint3_linear)"/>
<path d="M589.805 842.921C589.805 874.291 571.415 889.185 548.745 876.034C526.075 863.042 507.685 826.918 507.685 795.548C507.685 764.177 526.075 749.284 548.745 762.434C571.415 775.426 589.805 811.55 589.805 842.921Z" fill="white"/>
<path opacity="0.3" d="M891.493 25.2215C881.505 19.5177 873.578 24.1124 873.578 35.52V190.155L782.739 137.713V327.68C782.739 339.087 790.824 353.03 800.653 358.734C810.641 364.437 818.568 359.843 818.568 348.435V199.82L909.407 252.263V56.2753C909.407 44.8678 901.322 30.9253 891.493 25.2215Z" fill="url(#paint4_linear)"/>
<path d="M931.76 79.882C931.76 110.936 913.529 125.512 891.176 112.679C868.822 99.6868 850.591 64.1967 850.591 33.1428C850.591 2.08898 868.664 -12.4873 891.176 0.346141C913.687 13.3381 931.76 48.8282 931.76 79.882Z" fill="#F79775"/>
<path opacity="0.3" d="M1065.24 870.805C1065.24 859.398 1057.16 845.455 1047.33 839.752L906.236 758.314V640.278L766.093 559.475C756.106 553.771 748.179 558.366 748.179 569.773C748.179 581.181 756.264 595.123 766.093 600.827L870.408 661.033V779.07L1047.49 881.104C1057.32 886.808 1065.24 882.213 1065.24 870.805Z" fill="url(#paint5_linear)"/>
<path opacity="0.3" d="M724.716 1042.55C714.729 1036.85 706.802 1022.91 706.802 1011.5V636C706.802 624.592 714.887 619.998 724.716 625.701C734.704 631.405 742.631 645.348 742.631 656.755V1032.25C742.631 1043.66 734.545 1048.26 724.716 1042.55Z" fill="url(#paint6_linear)"/>
<path d="M1087.12 884.431C1087.12 915.802 1068.73 930.695 1046.06 917.545C1023.39 904.553 1005 868.429 1005 837.058C1005 805.688 1023.39 790.795 1046.06 803.945C1068.73 816.937 1087.12 853.061 1087.12 884.431Z" fill="#F79775"/>
<path opacity="0.3" d="M209.01 254.165L467.101 403.096V880.946L209.01 732.014V254.165Z" fill="url(#paint7_linear)"/>
<path opacity="0.15" d="M249.911 558.049L403.688 646.774V665.628L249.911 576.903V558.049V558.049Z" fill="#F7F8FB"/>
<path opacity="0.15" d="M265.923 604.47L387.834 674.817V693.671L265.923 623.325V604.47Z" fill="#F7F8FB"/>
<path d="M307.458 689.551L128 585.933V639.327L307.617 742.945L307.458 689.551Z" fill="white"/>
<path opacity="0.2" d="M394.017 450.786L353.909 482.473L326.958 447.934L291.764 478.354L277.813 468.214L329.653 424.644L355.97 459.183L384.981 437.635L394.017 450.786Z" fill="#F7F8FB"/>
<path d="M424.138 449.994C424.138 467.898 413.675 476.295 400.834 468.848C387.993 461.402 377.53 440.963 377.53 423.06C377.53 405.156 387.993 396.759 400.834 404.206C413.675 411.652 424.138 432.249 424.138 449.994Z" fill="white"/>
<path d="M303.971 484.533C303.971 502.437 293.508 510.834 280.667 503.387C267.825 495.941 257.362 475.502 257.362 457.599C257.362 439.695 267.825 431.298 280.667 438.745C293.508 446.191 303.971 466.63 303.971 484.533Z" fill="white"/>
<path opacity="0.2" d="M1096 566.604L850.591 424.96V552.661L1096 694.305V566.604Z" fill="url(#paint8_linear)"/>
<path opacity="0.15" d="M913.37 492.138L987.246 534.758V550.126L913.37 507.348V492.138Z" fill="#F7F8FB"/>
<path opacity="0.15" d="M913.528 522.875L1070.79 613.501V629.028L913.528 538.402V522.875Z" fill="#F7F8FB"/>
<path d="M900.529 496.574C900.529 507.031 894.346 512.101 886.578 507.665C878.81 503.229 872.627 491.029 872.627 480.572C872.627 470.115 878.81 465.045 886.578 469.481C894.346 473.918 900.529 486.117 900.529 496.574Z" fill="#F79775"/>
<path opacity="0.2" d="M466.308 176.054L220.9 34.4106V162.112L466.308 303.755V176.054Z" fill="url(#paint9_linear)"/>
<path opacity="0.15" d="M283.679 101.588L357.555 144.208V159.576L283.679 116.957V101.588Z" fill="#F7F8FB"/>
<path opacity="0.15" d="M283.838 132.325L441.102 222.952V238.479L283.838 147.852V132.325Z" fill="#F7F8FB"/>
<path d="M270.838 106.025C270.838 116.482 264.655 121.552 256.887 117.115C249.119 112.679 242.936 100.479 242.936 90.0224C242.936 79.5655 249.119 74.4954 256.887 78.9317C264.496 83.368 270.838 95.5677 270.838 106.025Z" fill="#EA6E5B"/>
<path opacity="0.2" d="M790.507 453.638C790.507 531.272 745.008 568.03 689.046 535.709C632.926 503.387 587.585 414.186 587.585 336.552C587.585 258.917 633.084 222.16 689.046 254.481C745.167 286.802 790.507 376.003 790.507 453.638Z" fill="url(#paint10_linear)"/>
<path opacity="0.4" d="M649.097 415.138C651.792 414.346 653.219 411.494 653.219 406.582C653.219 401.512 651.792 397.076 649.097 393.432C646.243 389.788 642.121 386.302 636.731 383.292C634.987 382.341 633.085 381.232 631.024 380.282C628.963 379.173 627.219 378.222 625.634 377.588V404.839L635.621 410.543C641.963 414.187 646.402 415.613 649.097 415.138Z" fill="#F7F8FB"/>
<path opacity="0.4" d="M638.317 433.834L625.476 426.387V459.026C627.061 460.135 628.646 461.244 630.232 462.194C631.975 463.304 633.878 464.413 635.939 465.68C642.121 469.166 647.036 470.909 650.841 470.592C654.646 470.433 656.548 466.948 656.548 460.452C656.548 454.748 654.963 449.678 651.792 445.4C648.621 441.122 644.182 437.161 638.317 433.834Z" fill="#F7F8FB"/>
<path opacity="0.4" d="M641.804 286.169C585.684 253.847 540.343 290.605 540.343 368.239C540.343 445.874 585.842 535.075 641.804 567.396C697.925 599.718 743.265 562.96 743.265 485.325C743.265 407.691 697.766 318.49 641.804 286.169ZM666.852 496.891C661.462 498.951 654.011 497.842 644.499 493.564V512.577L625 501.327V482.473C623.573 481.681 622.305 480.73 620.878 479.78C615.963 476.453 610.89 472.492 605.5 467.897V345.266C609.622 346.533 614.219 348.435 619.292 350.811C621.195 351.603 623.097 352.554 625 353.505V334.651L644.499 345.9L644.341 365.229C645.926 366.497 647.511 367.606 648.938 368.873C653.853 372.834 658.133 377.27 661.621 382.024C665.108 386.777 667.803 392.164 669.706 397.867C671.767 403.571 672.718 409.75 672.718 416.405C672.718 426.545 669.23 432.565 662.255 434.308C668.12 440.646 672.084 446.983 674.145 453.479C676.206 459.817 677.315 466.471 677.315 472.967C677.315 486.276 673.828 494.198 666.852 496.891Z" fill="#F7F8FB"/>
</g>
<defs>
<linearGradient id="paint0_linear" x1="-148" y1="522" x2="1240.36" y2="1055.26" gradientUnits="userSpaceOnUse">
<stop stop-color="#FFB186"/>
<stop offset="1" stop-color="#E63226"/>
</linearGradient>
<linearGradient id="paint1_linear" x1="682.498" y1="-335.949" x2="422.596" y2="114.599" gradientUnits="userSpaceOnUse">
<stop stop-color="white"/>
<stop offset="1" stop-color="white" stop-opacity="0"/>
</linearGradient>
<linearGradient id="paint2_linear" x1="494.337" y1="815.15" x2="658.63" y2="530.343" gradientUnits="userSpaceOnUse">
<stop stop-color="white"/>
<stop offset="1" stop-color="white" stop-opacity="0"/>
</linearGradient>
<linearGradient id="paint3_linear" x1="804.4" y1="-150.157" x2="578.969" y2="240.641" gradientUnits="userSpaceOnUse">
<stop stop-color="white"/>
<stop offset="1" stop-color="white" stop-opacity="0"/>
</linearGradient>
<linearGradient id="paint4_linear" x1="987.651" y1="-50.1492" x2="772.903" y2="322.122" gradientUnits="userSpaceOnUse">
<stop stop-color="white"/>
<stop offset="1" stop-color="white" stop-opacity="0"/>
</linearGradient>
<linearGradient id="paint5_linear" x1="1124.38" y1="720.314" x2="766.08" y2="720.274" gradientUnits="userSpaceOnUse">
<stop stop-color="white"/>
<stop offset="1" stop-color="white" stop-opacity="0"/>
</linearGradient>
<linearGradient id="paint6_linear" x1="643.323" y1="974.86" x2="806.133" y2="693.016" gradientUnits="userSpaceOnUse">
<stop stop-color="white"/>
<stop offset="1" stop-color="white" stop-opacity="0"/>
</linearGradient>
<linearGradient id="paint7_linear" x1="494.738" y1="296.265" x2="265.818" y2="693.105" gradientUnits="userSpaceOnUse">
<stop stop-color="white"/>
<stop offset="1" stop-color="white" stop-opacity="0"/>
</linearGradient>
<linearGradient id="paint8_linear" x1="1000.97" y1="511.71" x2="945.667" y2="607.584" gradientUnits="userSpaceOnUse">
<stop stop-color="white"/>
<stop offset="1" stop-color="white" stop-opacity="0"/>
</linearGradient>
<linearGradient id="paint9_linear" x1="371.282" y1="121.16" x2="315.976" y2="217.034" gradientUnits="userSpaceOnUse">
<stop stop-color="white"/>
<stop offset="1" stop-color="white" stop-opacity="0"/>
</linearGradient>
<linearGradient id="paint10_linear" x1="709.429" y1="279.092" x2="663.595" y2="540.255" gradientUnits="userSpaceOnUse">
<stop stop-color="white"/>
<stop offset="1" stop-color="white" stop-opacity="0"/>
</linearGradient>
<clipPath id="clip0">
<rect width="1300" height="900" fill="white"/>
</clipPath>
</defs>
</svg>
