<svg width="1300" height="900" viewBox="0 0 1300 900" fill="none" xmlns="http://www.w3.org/2000/svg">
<g clip-path="url(#clip0)">
<rect width="1300" height="900" fill="url(#paint0_linear)"/>
<path opacity="0.4" d="M944.348 255.529C995.879 285.338 1037.66 251.518 1037.8 180.003C1037.8 108.488 996.012 26.2795 944.481 -3.52954C892.95 -33.3386 851.164 0.480654 851.031 71.9957C851.031 87.7691 853.033 103.944 856.771 119.984L666.8 190.965C649.979 158.482 626.883 131.079 601.518 116.375C549.987 86.566 508.201 120.385 508.068 191.9C508.068 263.415 549.854 345.624 601.385 375.433C625.815 389.603 648.11 389.335 664.797 377.706L851.031 662.563C851.031 664.3 850.897 665.905 850.897 667.642C850.897 739.157 892.683 821.366 944.214 851.175C995.745 880.984 1037.53 847.165 1037.66 775.65C1037.66 704.135 995.879 621.926 944.348 592.117C910.438 572.601 880.801 580.488 864.381 608.425L689.362 340.678C692.966 329.049 694.835 315.414 694.835 299.908C694.835 285.739 693.233 271.302 690.163 256.865L881.469 185.35C898.023 215.961 920.184 241.493 944.348 255.529Z" fill="url(#paint1_linear)"/>
<path opacity="0.07" d="M1090.66 139.366C1090.66 210.881 1048.88 244.7 997.214 214.891C945.683 185.082 903.897 103.007 903.897 31.3583C903.897 -40.1567 945.683 -73.9759 997.347 -44.1669C1048.88 -14.3578 1090.66 67.8511 1090.66 139.366Z" fill="url(#paint2_linear)"/>
<path opacity="0.07" d="M747.568 256.998C747.568 328.513 705.782 362.333 654.118 332.524C602.586 302.715 560.801 220.506 560.801 148.991C560.801 77.4757 602.586 43.6564 654.251 73.4655C705.782 103.275 747.568 185.483 747.568 256.998Z" fill="url(#paint3_linear)"/>
<path opacity="0.07" d="M1092 735.548C1092 807.063 1050.21 840.882 998.549 811.073C947.018 781.264 905.232 699.055 905.232 627.54C905.232 556.025 947.018 522.205 998.682 552.015C1050.21 581.824 1092 664.032 1092 735.548Z" fill="url(#paint4_linear)"/>
<path opacity="0.2" d="M301.81 514.453L566.942 667.776L567.075 904.11L301.943 750.787L301.81 514.453Z" fill="url(#paint5_linear)"/>
<path opacity="0.15" d="M301.81 514.453L434.509 732.875L567.075 667.642L301.81 514.453Z" fill="url(#paint6_linear)"/>
<path d="M457.338 737.954C457.338 754.663 447.325 762.282 434.776 755.064C422.361 747.845 412.215 728.463 412.215 711.887C412.215 695.178 422.227 687.559 434.776 694.777C447.325 701.995 457.338 721.378 457.338 737.954Z" fill="#1D69CF"/>
<path opacity="0.3" d="M573.483 399.092L176.319 169.71L176.453 371.957L538.64 581.155L573.75 632.352L573.483 399.092Z" fill="url(#paint7_linear)"/>
<path d="M134 248.042V193.103L283.921 279.723V334.662L134 248.042Z" fill="#1D69CF"/>
<path opacity="0.15" d="M471.355 389.335L384.313 339.074V356.852L471.355 407.113V389.335Z" fill="#F7F8FB"/>
<path opacity="0.15" d="M471.489 424.892L303.679 327.979V345.757L471.489 442.67V424.892Z" fill="#F7F8FB"/>
<path opacity="0.15" d="M471.489 460.449L268.167 343.084V360.863L471.489 478.227V460.449Z" fill="#F7F8FB"/>
<path d="M492.849 420.213C492.849 436.922 502.995 456.171 515.41 463.389C527.826 470.608 537.972 462.855 537.972 446.279C537.972 429.57 527.826 410.321 515.41 403.103C502.861 395.885 492.849 403.638 492.849 420.213Z" fill="#1D69CF"/>
<path opacity="0.3" d="M609.528 534.369L1006.69 763.752L1006.83 965.999L644.639 756.801L609.662 767.495L609.528 534.369Z" fill="url(#paint8_linear)"/>
<path d="M891.214 797.838V742.899L1041.14 829.519V884.458L891.214 797.838Z" fill="white"/>
<path opacity="0.15" d="M711.656 642.511L798.699 692.772V710.551L711.656 660.29V642.511Z" fill="#F7F8FB"/>
<path opacity="0.15" d="M711.656 678.068L868.786 768.832V786.61L711.656 695.98V678.068Z" fill="#F7F8FB"/>
<path opacity="0.15" d="M711.656 713.759L914.977 831.123V848.902L711.656 731.537V713.759Z" fill="#F7F8FB"/>
<path d="M690.296 648.66C690.296 665.369 680.284 672.988 667.735 665.77C655.319 658.551 645.173 639.169 645.173 622.593C645.173 605.884 655.186 598.265 667.735 605.483C680.15 612.702 690.163 632.084 690.296 648.66Z" fill="white"/>
<path opacity="0.2" d="M394.193 127.604L337.055 94.5863V75.3374L394.193 108.355C398.865 111.028 405.674 116.509 411.415 124.93C417.689 133.886 422.095 145.248 422.095 157.546C422.095 171.181 418.624 178.934 412.082 181.073C405.941 183.078 398.598 179.602 394.193 177.063L370.697 163.428L370.563 163.294C368.561 162.091 365.357 160.888 362.82 161.69C360.684 162.358 358.415 164.364 358.415 171.983C358.415 179.602 360.818 184.147 362.687 186.954C365.09 190.43 368.294 192.836 370.296 193.905L370.563 194.039L442.387 235.611V254.86L370.964 213.555C366.024 211.015 358.949 205.535 352.808 196.98C346.133 187.489 341.594 175.592 341.594 162.358C341.594 149.125 346.133 142.441 352.674 140.57C358.815 138.832 365.891 141.372 370.83 144.313L394.059 157.814C397.397 159.819 399.933 160.621 401.669 160.086C403.004 159.685 405.407 157.814 405.407 148.055C405.407 141.639 403.404 137.495 401.402 134.822C399.132 131.213 396.195 128.673 394.193 127.604Z" fill="#F7F8FB"/>
<path d="M347.6 90.442C347.6 107.686 337.454 115.84 325.039 108.755C312.623 101.537 302.477 81.7533 302.477 64.3758C302.477 47.132 312.623 38.9779 325.039 46.0626C337.454 53.2809 347.6 73.1982 347.6 90.442Z" fill="#1D69CF"/>
<path d="M471.756 261.543C471.756 278.787 461.61 286.941 449.194 279.856C436.779 272.638 426.633 252.854 426.633 235.477C426.633 218.233 436.779 210.079 449.194 217.164C461.61 224.382 471.756 244.299 471.756 261.543Z" fill="white"/>
<path opacity="0.2" d="M584.964 912.53C514.342 821.499 565.472 788.749 584.964 841.951C604.455 811.206 655.585 903.173 584.964 912.53Z" fill="url(#paint9_linear)"/>
</g>
<defs>
<linearGradient id="paint0_linear" x1="-159" y1="142" x2="1198.26" y2="1051.79" gradientUnits="userSpaceOnUse">
<stop stop-color="#499DFF"/>
<stop offset="1" stop-color="#072695"/>
</linearGradient>
<linearGradient id="paint1_linear" x1="1082.31" y1="167.758" x2="705.806" y2="551.373" gradientUnits="userSpaceOnUse">
<stop stop-color="white"/>
<stop offset="1" stop-color="white" stop-opacity="0"/>
</linearGradient>
<linearGradient id="paint2_linear" x1="1044.02" y1="37.6224" x2="667.52" y2="421.237" gradientUnits="userSpaceOnUse">
<stop stop-color="white"/>
<stop offset="1" stop-color="white" stop-opacity="0"/>
</linearGradient>
<linearGradient id="paint3_linear" x1="700.925" y1="155.255" x2="324.424" y2="538.87" gradientUnits="userSpaceOnUse">
<stop stop-color="white"/>
<stop offset="1" stop-color="white" stop-opacity="0"/>
</linearGradient>
<linearGradient id="paint4_linear" x1="1045.36" y1="633.804" x2="668.854" y2="1017.42" gradientUnits="userSpaceOnUse">
<stop stop-color="white"/>
<stop offset="1" stop-color="white" stop-opacity="0"/>
</linearGradient>
<linearGradient id="paint5_linear" x1="454.874" y1="542.128" x2="426.28" y2="775.647" gradientUnits="userSpaceOnUse">
<stop stop-color="white"/>
<stop offset="1" stop-color="white" stop-opacity="0"/>
</linearGradient>
<linearGradient id="paint6_linear" x1="431.413" y1="525.044" x2="442.802" y2="775.753" gradientUnits="userSpaceOnUse">
<stop stop-color="white"/>
<stop offset="1" stop-color="white" stop-opacity="0"/>
</linearGradient>
<linearGradient id="paint7_linear" x1="484.515" y1="313.939" x2="283.574" y2="473.265" gradientUnits="userSpaceOnUse">
<stop stop-color="white"/>
<stop offset="1" stop-color="white" stop-opacity="0"/>
</linearGradient>
<linearGradient id="paint8_linear" x1="784.416" y1="542.73" x2="828.08" y2="951.237" gradientUnits="userSpaceOnUse">
<stop stop-color="white"/>
<stop offset="1" stop-color="white" stop-opacity="0"/>
</linearGradient>
<linearGradient id="paint9_linear" x1="599.897" y1="845.402" x2="547.585" y2="890.537" gradientUnits="userSpaceOnUse">
<stop stop-color="white"/>
<stop offset="1" stop-color="white" stop-opacity="0"/>
</linearGradient>
<clipPath id="clip0">
<rect width="1300" height="900" fill="white"/>
</clipPath>
</defs>
</svg>
