<svg width="1300" height="900" viewBox="0 0 1300 900" fill="none" xmlns="http://www.w3.org/2000/svg">
<g clip-path="url(#clip0)">
<rect width="1300" height="900" fill="url(#paint0_linear)"/>
<path opacity="0.07" d="M284.708 454.364C284.708 625.402 384.94 706.183 508.513 635.001C632.087 563.818 732.194 367.349 732.194 196.436C732.194 25.398 631.962 -55.3837 508.388 15.7989C384.815 86.9816 284.708 283.326 284.708 454.364Z" fill="url(#paint1_linear)"/>
<path opacity="0.4" d="M610.119 94.7103C639.452 77.7561 668.535 69.0297 695.746 68.905C722.833 68.7804 747.548 77.3821 768.393 94.2117C789.238 111.041 805.715 135.6 816.949 166.641C828.183 197.682 834.049 234.707 834.049 275.347L610.119 404.249V94.7103Z" fill="url(#paint2_linear)"/>
<path opacity="0.2" d="M783.995 232.463C783.995 293.672 770.889 361.115 746.299 426.189C721.709 491.263 686.759 551.102 645.942 598.1C605.125 645.098 560.064 677.136 516.626 690.226C473.188 703.315 433.37 696.833 402.04 671.526C370.709 646.22 349.49 603.335 340.752 548.359C332.139 493.258 336.508 428.433 353.484 362.112C370.46 295.792 399.044 230.842 435.866 175.616C472.689 120.391 515.877 77.2571 560.189 51.8258V361.489L783.995 232.463Z" fill="url(#paint3_linear)"/>
<path opacity="0.3" d="M720.961 201.048L1092.43 -12.999L1092.31 180.229L753.664 375.451L720.836 423.945L720.961 201.048Z" fill="url(#paint4_linear)"/>
<path d="M1132 62.2973V9.8141L991.824 90.7205V143.204L1132 62.2973Z" fill="#F2A5BD"/>
<path opacity="0.15" d="M816.449 193.069L897.833 146.196V163.15L816.449 210.024V193.069Z" fill="#F7F8FB"/>
<path opacity="0.15" d="M816.449 227.103L973.35 136.722V153.676L816.449 244.057V227.103Z" fill="#F7F8FB"/>
<path opacity="0.15" d="M816.449 261.011L1006.55 151.432V168.386L816.449 278.09V261.011Z" fill="#F7F8FB"/>
<path d="M796.352 222.365C796.352 238.322 786.866 256.648 775.258 263.38C763.649 270.111 754.163 262.632 754.163 246.675C754.163 230.718 763.649 212.392 775.258 205.661C786.991 198.929 796.352 206.409 796.352 222.365Z" fill="#ED648C"/>
<path opacity="0.3" d="M571.549 500.115L200.203 714.286L200.079 907.639L538.721 712.416L571.424 723.137L571.549 500.115Z" fill="url(#paint5_linear)"/>
<path d="M308.174 748.319V695.836L167.999 776.743V829.226L308.174 748.319Z" fill="#EE6F94"/>
<path opacity="0.15" d="M476.059 602.339L394.675 649.212V666.166L476.059 619.293V602.339Z" fill="#F7F8FB"/>
<path opacity="0.15" d="M476.059 636.246L329.144 720.893V737.847L476.059 653.201V636.246Z" fill="#F7F8FB"/>
<path opacity="0.15" d="M476.06 670.28L285.956 779.859V796.813L475.935 687.234L476.06 670.28Z" fill="#F7F8FB"/>
<path d="M496.031 608.447C496.031 624.404 505.517 631.884 517.126 625.152C528.734 618.42 538.221 600.095 538.221 584.138C538.221 568.181 528.734 560.701 517.126 567.433C505.517 574.165 496.031 592.49 496.031 608.447Z" fill="#EE6F94"/>
<path opacity="0.3" d="M832.801 404.373L623.599 524.922V912.001L832.801 791.452V404.373Z" fill="url(#paint6_linear)"/>
<path opacity="0.15" d="M812.205 634.128L644.195 730.991V747.945L812.205 651.082V634.128Z" fill="#F7F8FB"/>
<path opacity="0.15" d="M800.472 674.02L656.053 757.295V774.249L800.472 690.974V674.02Z" fill="#F7F8FB"/>
<path d="M739.434 743.207L884.976 659.309V702.567L739.434 786.465V743.207Z" fill="white"/>
<path d="M704.359 556.587C704.359 575.286 715.219 584.137 728.575 576.408C741.931 568.554 752.79 547.112 752.79 528.288C752.79 509.589 741.931 500.738 728.575 508.467C715.219 516.321 704.359 537.887 704.359 556.587Z" fill="white"/>
<path d="M728.699 591.493C750.293 578.902 768.143 590.745 771.263 617.797C771.762 622.534 768.267 628.768 763.899 631.261L693.499 672.4C689.13 674.893 685.635 672.898 686.135 667.538C689.255 636.621 707.105 604.084 728.699 591.493Z" fill="white"/>
<path opacity="0.2" d="M949.259 372.708L1002.68 341.917V323.965L949.259 354.757C944.891 357.25 938.525 362.361 933.157 370.215C927.291 378.568 923.172 389.164 923.172 400.633C923.172 413.349 926.417 420.579 932.533 422.574C938.275 424.444 945.14 421.202 949.259 418.834L971.228 406.118L971.353 405.993C973.225 404.872 976.221 403.75 978.593 404.498C980.59 405.121 982.712 406.991 982.712 414.097C982.712 421.202 980.465 425.441 978.717 428.059C976.471 431.3 973.475 433.544 971.603 434.541L971.353 434.666L904.199 473.436V491.388L970.978 452.867C975.597 450.498 982.212 445.387 987.954 437.409C994.195 428.558 998.439 417.463 998.439 405.121C998.439 392.779 994.195 386.546 988.079 384.801C982.337 383.18 975.722 385.549 971.103 388.291L949.384 400.882C946.264 402.752 943.892 403.5 942.269 403.002C941.021 402.628 938.774 400.882 938.774 391.782C938.774 385.798 940.647 381.934 942.519 379.44C944.766 376.074 947.512 373.706 949.259 372.708Z" fill="#F7F8FB"/>
<path d="M992.948 338.053C992.948 354.135 1002.43 361.739 1014.04 355.132C1025.65 348.4 1035.14 329.95 1035.14 313.744C1035.14 297.662 1025.65 290.058 1014.04 296.665C1002.43 303.397 992.948 321.971 992.948 338.053Z" fill="#F2A5BD"/>
<path d="M876.863 497.622C876.863 513.703 886.35 521.308 897.958 514.701C909.567 507.969 919.053 489.519 919.053 473.312C919.053 457.231 909.567 449.626 897.958 456.234C886.35 462.965 876.863 481.54 876.863 497.622Z" fill="white"/>
</g>
<defs>
<linearGradient id="paint0_linear" x1="-180.781" y1="872.5" x2="1278.67" y2="1063.21" gradientUnits="userSpaceOnUse">
<stop stop-color="#F3B2C6"/>
<stop offset="1" stop-color="#EB5581"/>
</linearGradient>
<linearGradient id="paint1_linear" x1="239.788" y1="192.251" x2="653.906" y2="397.944" gradientUnits="userSpaceOnUse">
<stop stop-color="white"/>
<stop offset="1" stop-color="white" stop-opacity="0"/>
</linearGradient>
<linearGradient id="paint2_linear" x1="514.938" y1="165.433" x2="765.514" y2="283.578" gradientUnits="userSpaceOnUse">
<stop stop-color="white"/>
<stop offset="1" stop-color="white" stop-opacity="0"/>
</linearGradient>
<linearGradient id="paint3_linear" x1="398.087" y1="251.65" x2="581.242" y2="440.997" gradientUnits="userSpaceOnUse">
<stop stop-color="white"/>
<stop offset="1" stop-color="white" stop-opacity="0"/>
</linearGradient>
<linearGradient id="paint4_linear" x1="801.966" y1="123.635" x2="993.57" y2="273.846" gradientUnits="userSpaceOnUse">
<stop stop-color="white"/>
<stop offset="1" stop-color="white" stop-opacity="0"/>
</linearGradient>
<linearGradient id="paint5_linear" x1="412.002" y1="506.416" x2="364.103" y2="895.417" gradientUnits="userSpaceOnUse">
<stop stop-color="white"/>
<stop offset="1" stop-color="white" stop-opacity="0"/>
</linearGradient>
<linearGradient id="paint6_linear" x1="601.242" y1="438.489" x2="786.581" y2="759.998" gradientUnits="userSpaceOnUse">
<stop stop-color="white"/>
<stop offset="1" stop-color="white" stop-opacity="0"/>
</linearGradient>
<clipPath id="clip0">
<rect width="1300" height="900" fill="white"/>
</clipPath>
</defs>
</svg>
