<svg width="1300" height="900" viewBox="0 0 1300 900" fill="none" xmlns="http://www.w3.org/2000/svg">
<g clip-path="url(#clip0)">
<rect width="1300" height="900" fill="url(#paint0_linear)"/>
<path opacity="0.3" d="M1274.62 616.449C1404.31 503.693 1422.52 610.998 1431.29 612.726C1431.29 612.726 1435.14 638.655 1431.29 733.194L167.034 1463.32V949.532C310.681 691.975 405.826 512.07 499.508 595.042C661.626 738.779 740.559 835.313 933.373 635.863C1047.52 517.788 1118.88 751.81 1274.62 616.449Z" fill="url(#paint1_linear)"/>
<path opacity="0.3" d="M1107.58 707.132C1237.28 594.376 1255.48 701.681 1264.25 703.409C1264.25 703.409 1268.11 729.338 1264.25 823.877L-0.000488281 1554V1040.21C204.64 742.9 339.517 798.215 456.454 841.163C571 883.181 612.991 795.422 757.966 670.3C877.296 567.251 951.843 842.36 1107.58 707.132Z" fill="url(#paint2_linear)"/>
<path d="M414.463 588.526C414.463 577.888 420.709 565.788 428.283 561.4C435.858 557.013 442.103 561.932 442.103 572.57C442.103 583.207 435.858 595.307 428.283 599.695C420.576 604.083 414.463 599.163 414.463 588.526Z" fill="#D8343C" fill-opacity="0.8"/>
<path d="M780.955 660.061C780.955 649.823 787.333 637.856 795.306 633.335C803.279 628.814 809.658 633.335 809.658 643.573C809.658 653.812 803.279 665.779 795.306 670.3C787.466 674.821 780.955 670.3 780.955 660.061Z" fill="white"/>
<path opacity="0.07" d="M502.831 -92L257.528 49.7429V532.148L502.831 390.538V-92Z" fill="#F7F8FB"/>
<path opacity="0.3" d="M550.669 -50.5142L305.366 91.2288V573.633L411.407 512.469L428.018 526.031L444.628 493.188L550.669 432.023V-50.5142Z" fill="url(#paint3_linear)"/>
<path opacity="0.1" d="M337.523 241.614C337.523 257.039 339.782 271.133 344.034 282.967C348.286 294.801 354.532 304.109 362.372 310.491C370.212 316.874 379.647 320.065 389.879 320.065C400.111 320.065 411.273 316.741 422.303 310.225V192.55L337.523 241.614Z" fill="#F7F8FB"/>
<path opacity="0.3" d="M422.436 310.225C437.319 301.582 451.936 287.754 464.826 269.936C477.716 252.118 488.479 231.11 495.921 208.904C503.362 186.699 507.349 164.094 507.349 143.484C507.349 122.874 503.362 104.791 495.921 91.2283L422.436 192.549V310.225V310.225Z" fill="#F7F8FB"/>
<path d="M337.523 241.615C337.523 215.686 343.636 186.965 355.064 159.84C366.492 132.715 382.438 108.78 400.377 91.6277C418.449 74.4749 437.584 65.1672 454.859 65.1672C472.134 65.1672 486.485 74.342 495.92 91.3618L422.435 192.683L337.523 241.615Z" fill="#D8343C" fill-opacity="0.8"/>
<path opacity="0.15" d="M518.644 315.412L369.15 401.707V419.791L518.644 333.495V315.412Z" fill="#F7F8FB"/>
<path opacity="0.15" d="M518.644 350.78L337.391 455.425V473.509L518.776 368.864L518.644 350.78Z" fill="#F7F8FB"/>
<path opacity="0.15" d="M518.776 386.017L401.307 453.83V471.914L518.776 404.1V386.017Z" fill="#F7F8FB"/>
<path opacity="0.07" d="M870.784 -19.9316L625.481 121.811V604.216L870.784 462.606V-19.9316Z" fill="#F7F8FB"/>
<path opacity="0.3" d="M918.092 21.9531L672.789 163.563V645.968L778.697 584.936L795.308 598.498L812.051 565.656L918.092 504.358V21.9531Z" fill="url(#paint4_linear)"/>
<path opacity="0.1" d="M704.813 313.949C704.813 334.559 708.8 352.642 716.241 366.205C723.683 379.768 734.446 388.41 747.336 391.336L789.726 264.884L704.813 313.949Z" fill="#F7F8FB"/>
<path opacity="0.3" d="M747.204 391.335C763.415 394.925 782.152 389.208 800.756 375.246C819.226 361.152 836.501 339.478 849.657 313.55L789.593 265.017L747.204 391.335Z" fill="#F7F8FB"/>
<path d="M704.813 313.948C704.813 294.535 708.268 273.526 714.78 252.651C721.291 231.775 730.859 211.697 742.419 194.278C753.98 176.859 767.402 162.499 781.221 152.526C795.174 142.554 809.127 137.368 822.017 137.368C834.906 137.368 846.334 142.421 855.105 152.26C864.008 162.1 869.988 176.328 872.778 193.746C875.569 211.165 874.771 231.11 870.785 251.986C866.798 272.862 859.49 293.87 849.523 313.284L789.46 264.751L704.813 313.948Z" fill="white"/>
<path opacity="0.15" d="M886.067 387.745L716.375 485.742V503.825L886.067 405.829V387.745Z" fill="#F7F8FB"/>
<path opacity="0.15" d="M886.066 423.115L709.863 524.968V543.051L886.066 441.198V423.115Z" fill="#F7F8FB"/>
<path opacity="0.15" d="M886.067 458.484L768.598 526.297V544.38L886.067 476.567V458.484Z" fill="#F7F8FB"/>
</g>
<defs>
<linearGradient id="paint0_linear" x1="-171" y1="200" x2="1204.51" y2="1053.83" gradientUnits="userSpaceOnUse">
<stop stop-color="#FF7979"/>
<stop offset="1" stop-color="#CC1F29"/>
</linearGradient>
<linearGradient id="paint1_linear" x1="569.046" y1="306.406" x2="730.227" y2="818.212" gradientUnits="userSpaceOnUse">
<stop stop-color="white"/>
<stop offset="1" stop-color="white" stop-opacity="0"/>
</linearGradient>
<linearGradient id="paint2_linear" x1="499.233" y1="526.783" x2="590.783" y2="940.924" gradientUnits="userSpaceOnUse">
<stop stop-color="white"/>
<stop offset="1" stop-color="white" stop-opacity="0"/>
</linearGradient>
<linearGradient id="paint3_linear" x1="428.018" y1="17.0168" x2="428.018" y2="666.676" gradientUnits="userSpaceOnUse">
<stop stop-color="white" stop-opacity="0"/>
<stop offset="1" stop-color="white"/>
</linearGradient>
<linearGradient id="paint4_linear" x1="795.44" y1="96.1139" x2="795.44" y2="711.283" gradientUnits="userSpaceOnUse">
<stop stop-color="white" stop-opacity="0"/>
<stop offset="1" stop-color="white"/>
</linearGradient>
<clipPath id="clip0">
<rect width="1300" height="900" fill="white"/>
</clipPath>
</defs>
</svg>
