<svg width="317" height="55" viewBox="0 0 317 55" fill="none" xmlns="http://www.w3.org/2000/svg">
<path d="M94.105 11.87V44H101.17V30.725H114.625V25.235H101.17V17.81H116.695V11.87H94.105ZM120.105 20.735V44H126.495V33.515C126.495 32.465 126.6 31.49 126.81 30.59C127.02 29.69 127.365 28.91 127.845 28.25C128.355 27.56 129.015 27.02 129.825 26.63C130.635 26.24 131.625 26.045 132.795 26.045C133.185 26.045 133.59 26.075 134.01 26.135C134.43 26.165 134.79 26.21 135.09 26.27V20.33C134.58 20.18 134.115 20.105 133.695 20.105C132.885 20.105 132.105 20.225 131.355 20.465C130.605 20.705 129.9 21.05 129.24 21.5C128.58 21.92 127.995 22.445 127.485 23.075C126.975 23.675 126.57 24.335 126.27 25.055H126.18V20.735H120.105ZM152.464 29.87H142.069C142.099 29.42 142.189 28.91 142.339 28.34C142.519 27.77 142.804 27.23 143.194 26.72C143.614 26.21 144.154 25.79 144.814 25.46C145.504 25.1 146.359 24.92 147.379 24.92C148.939 24.92 150.094 25.34 150.844 26.18C151.624 27.02 152.164 28.25 152.464 29.87ZM142.069 33.92H158.854C158.974 32.12 158.824 30.395 158.404 28.745C157.984 27.095 157.294 25.625 156.334 24.335C155.404 23.045 154.204 22.025 152.734 21.275C151.264 20.495 149.539 20.105 147.559 20.105C145.789 20.105 144.169 20.42 142.699 21.05C141.259 21.68 140.014 22.55 138.964 23.66C137.914 24.74 137.104 26.03 136.534 27.53C135.964 29.03 135.679 30.65 135.679 32.39C135.679 34.19 135.949 35.84 136.489 37.34C137.059 38.84 137.854 40.13 138.874 41.21C139.894 42.29 141.139 43.13 142.609 43.73C144.079 44.3 145.729 44.585 147.559 44.585C150.199 44.585 152.449 43.985 154.309 42.785C156.169 41.585 157.549 39.59 158.449 36.8H152.824C152.614 37.52 152.044 38.21 151.114 38.87C150.184 39.5 149.074 39.815 147.784 39.815C145.984 39.815 144.604 39.35 143.644 38.42C142.684 37.49 142.159 35.99 142.069 33.92ZM168.044 32.39C168.044 31.43 168.134 30.515 168.314 29.645C168.524 28.745 168.854 27.95 169.304 27.26C169.754 26.54 170.339 25.97 171.059 25.55C171.779 25.13 172.664 24.92 173.714 24.92C174.704 24.92 175.544 25.145 176.234 25.595C176.954 26.045 177.524 26.63 177.944 27.35C178.364 28.07 178.664 28.88 178.844 29.78C179.054 30.68 179.159 31.58 179.159 32.48C179.159 33.44 179.054 34.37 178.844 35.27C178.664 36.14 178.349 36.92 177.899 37.61C177.479 38.27 176.909 38.81 176.189 39.23C175.499 39.62 174.629 39.815 173.579 39.815C172.529 39.815 171.644 39.605 170.924 39.185C170.234 38.765 169.664 38.21 169.214 37.52C168.794 36.8 168.494 36.005 168.314 35.135C168.134 34.235 168.044 33.32 168.044 32.39ZM185.324 52.145V20.735H179.249V23.705H179.159C178.439 22.415 177.434 21.5 176.144 20.96C174.884 20.39 173.534 20.105 172.094 20.105C170.324 20.105 168.779 20.45 167.459 21.14C166.169 21.83 165.089 22.76 164.219 23.93C163.349 25.07 162.704 26.39 162.284 27.89C161.864 29.39 161.654 30.935 161.654 32.525C161.654 34.775 161.969 36.68 162.599 38.24C163.229 39.77 164.024 41.015 164.984 41.975C165.944 42.905 166.994 43.58 168.134 44C169.304 44.39 170.429 44.585 171.509 44.585C172.949 44.585 174.344 44.315 175.694 43.775C177.044 43.235 178.094 42.335 178.844 41.075H178.934V52.145H185.324ZM211.979 44V20.735H205.589V32.93C205.589 35.3 205.199 37.01 204.419 38.06C203.639 39.08 202.379 39.59 200.639 39.59C199.109 39.59 198.044 39.125 197.444 38.195C196.844 37.235 196.544 35.795 196.544 33.875V20.735H190.154V35.045C190.154 36.485 190.274 37.805 190.514 39.005C190.784 40.175 191.234 41.18 191.864 42.02C192.494 42.83 193.349 43.46 194.429 43.91C195.539 44.36 196.949 44.585 198.659 44.585C200.009 44.585 201.329 44.285 202.619 43.685C203.909 43.085 204.959 42.11 205.769 40.76H205.904V44H211.979ZM232.488 29.87H222.093C222.123 29.42 222.213 28.91 222.363 28.34C222.543 27.77 222.828 27.23 223.218 26.72C223.638 26.21 224.178 25.79 224.838 25.46C225.528 25.1 226.383 24.92 227.403 24.92C228.963 24.92 230.118 25.34 230.868 26.18C231.648 27.02 232.188 28.25 232.488 29.87ZM222.093 33.92H238.878C238.998 32.12 238.848 30.395 238.428 28.745C238.008 27.095 237.318 25.625 236.358 24.335C235.428 23.045 234.228 22.025 232.758 21.275C231.288 20.495 229.563 20.105 227.583 20.105C225.813 20.105 224.193 20.42 222.723 21.05C221.283 21.68 220.038 22.55 218.988 23.66C217.938 24.74 217.128 26.03 216.558 27.53C215.988 29.03 215.703 30.65 215.703 32.39C215.703 34.19 215.973 35.84 216.513 37.34C217.083 38.84 217.878 40.13 218.898 41.21C219.918 42.29 221.163 43.13 222.633 43.73C224.103 44.3 225.753 44.585 227.583 44.585C230.223 44.585 232.473 43.985 234.333 42.785C236.193 41.585 237.573 39.59 238.473 36.8H232.848C232.638 37.52 232.068 38.21 231.138 38.87C230.208 39.5 229.098 39.815 227.808 39.815C226.008 39.815 224.628 39.35 223.668 38.42C222.708 37.49 222.183 35.99 222.093 33.92ZM242.668 20.735V44H249.058V31.805C249.058 29.435 249.448 27.74 250.228 26.72C251.008 25.67 252.268 25.145 254.008 25.145C255.538 25.145 256.603 25.625 257.203 26.585C257.803 27.515 258.103 28.94 258.103 30.86V44H264.493V29.69C264.493 28.25 264.358 26.945 264.088 25.775C263.848 24.575 263.413 23.57 262.783 22.76C262.153 21.92 261.283 21.275 260.173 20.825C259.093 20.345 257.698 20.105 255.988 20.105C254.638 20.105 253.318 20.42 252.028 21.05C250.738 21.65 249.688 22.625 248.878 23.975H248.743V20.735H242.668ZM285.183 28.925H291.438C291.348 27.425 290.988 26.135 290.358 25.055C289.728 23.945 288.903 23.03 287.883 22.31C286.893 21.56 285.753 21.005 284.463 20.645C283.203 20.285 281.883 20.105 280.503 20.105C278.613 20.105 276.933 20.42 275.463 21.05C273.993 21.68 272.748 22.565 271.728 23.705C270.708 24.815 269.928 26.15 269.388 27.71C268.878 29.24 268.623 30.905 268.623 32.705C268.623 34.445 268.908 36.05 269.478 37.52C270.048 38.96 270.843 40.205 271.863 41.255C272.883 42.305 274.113 43.13 275.553 43.73C277.023 44.3 278.628 44.585 280.368 44.585C283.458 44.585 285.993 43.775 287.973 42.155C289.953 40.535 291.153 38.18 291.573 35.09H285.408C285.198 36.53 284.673 37.685 283.833 38.555C283.023 39.395 281.853 39.815 280.323 39.815C279.333 39.815 278.493 39.59 277.803 39.14C277.113 38.69 276.558 38.12 276.138 37.43C275.748 36.71 275.463 35.915 275.283 35.045C275.103 34.175 275.013 33.32 275.013 32.48C275.013 31.61 275.103 30.74 275.283 29.87C275.463 28.97 275.763 28.16 276.183 27.44C276.633 26.69 277.203 26.09 277.893 25.64C278.583 25.16 279.438 24.92 280.458 24.92C283.188 24.92 284.763 26.255 285.183 28.925ZM306.658 46.88L316.378 20.735H309.763L304.678 36.665H304.588L299.323 20.735H292.528L300.673 42.56C300.853 43.01 300.943 43.49 300.943 44C300.943 44.69 300.733 45.32 300.313 45.89C299.923 46.46 299.308 46.79 298.468 46.88C297.838 46.91 297.208 46.895 296.578 46.835C295.948 46.775 295.333 46.715 294.733 46.655V51.92C295.393 51.98 296.038 52.025 296.668 52.055C297.328 52.115 297.988 52.145 298.648 52.145C300.838 52.145 302.548 51.74 303.778 50.93C305.008 50.12 305.968 48.77 306.658 46.88Z" fill="white"/>
<path d="M0 39C7.9 39 7.9 19 15.8 19C23.7 19 23.7 39 31.6 39C39.5 39 39.5 19 47.4 19C55.3 19 55.3 39 63.2 39C71.1 39 71.1 19 79 19" stroke="white" stroke-width="5" stroke-miterlimit="10" stroke-linejoin="round"/>
</svg>
