<svg width="1300" height="900" viewBox="0 0 1300 900" fill="none" xmlns="http://www.w3.org/2000/svg">
<g clip-path="url(#clip0)">
<rect width="1300" height="900" fill="url(#paint0_linear)"/>
<path opacity="0.2" d="M713.258 201.857L993.334 43.2421L994.634 188.465L714.428 347.08L713.258 201.857Z" fill="url(#paint1_linear)"/>
<path opacity="0.15" d="M921.95 118.909L837.693 166.624L837.823 184.045L922.08 136.331L921.95 118.909Z" fill="#F7F8FB"/>
<path opacity="0.15" d="M922.21 153.883L742.774 255.422L742.904 273.104L922.34 171.565L922.21 153.883Z" fill="#F7F8FB"/>
<path d="M936.903 124.11C937.033 136.071 944.185 141.792 953.026 136.721C961.868 131.781 968.889 117.999 968.759 106.038C968.629 94.0771 961.478 88.3566 952.636 93.4271C943.795 98.4975 936.773 112.149 936.903 124.11Z" fill="white"/>
<path opacity="0.2" d="M76.0005 852.436L356.207 693.952L357.507 839.175L77.1707 997.66L76.0005 852.436Z" fill="url(#paint2_linear)"/>
<path opacity="0.15" d="M284.822 769.489L200.565 817.204L200.695 834.625L284.952 786.911L284.822 769.489Z" fill="#F7F8FB"/>
<path opacity="0.15" d="M284.952 804.462L105.516 906.001L105.646 923.683L285.082 822.144L284.952 804.462Z" fill="#F7F8FB"/>
<path d="M299.645 774.82C299.775 786.781 306.926 792.501 315.768 787.431C324.61 782.49 331.631 768.709 331.501 756.748C331.371 744.787 324.22 739.066 315.378 744.137C306.536 749.077 299.515 762.728 299.645 774.82Z" fill="white"/>
<path opacity="0.1" d="M402.756 -77.2784C455.546 -67.0074 574.26 -53.7462 626.01 -82.9989C625.62 123.98 574.91 417.677 409.127 659.889C240.743 606.714 185.482 372.953 181.581 168.574C233.331 139.191 350.615 -7.59198 402.756 -77.2784Z" fill="url(#paint3_linear)"/>
<path opacity="0.3" d="M467.249 -34.3746C520.039 -24.1036 638.753 -10.8424 690.504 -40.0951C690.114 166.754 639.403 460.451 473.62 702.663C305.236 649.488 249.975 415.857 246.074 211.348C297.825 181.965 415.108 35.3118 467.249 -34.3746Z" fill="url(#paint4_linear)"/>
<path opacity="0.4" d="M246.074 211.347C297.955 181.965 415.108 35.3111 467.249 -34.3752L473.62 702.662C305.236 649.488 249.975 415.856 246.074 211.347Z" fill="url(#paint5_linear)"/>
<path opacity="0.1" d="M745.244 354.751L485.842 501.535L491.173 1120L750.445 973.218L745.244 354.751Z" fill="url(#paint6_linear)"/>
<path opacity="0.2" d="M714.558 635.446L518.999 746.087L520.429 917.962L716.119 807.322L714.558 635.446Z" fill="url(#paint7_linear)"/>
<path opacity="0.15" d="M709.748 521.036L619.379 572.131L619.509 589.812L709.878 538.718L709.748 521.036Z" fill="#F7F8FB"/>
<path opacity="0.15" d="M709.748 556.139L619.379 607.234L619.509 624.915L709.878 573.821L709.748 556.139Z" fill="#F7F8FB"/>
<path opacity="0.15" d="M710.398 589.942L538.763 687.061L538.893 704.743L710.528 607.624L710.398 589.942Z" fill="#F7F8FB"/>
<path opacity="0.2" d="M745.244 354.751L485.842 501.535L486.622 584.353L745.895 437.569L745.244 354.751Z" fill="url(#paint8_linear)"/>
<path opacity="0.2" d="M680.752 433.408C680.882 445.889 688.293 451.87 697.395 446.799C706.497 441.599 713.778 427.297 713.648 414.816C713.518 402.335 706.107 396.354 697.005 401.425C687.903 406.625 680.622 420.927 680.752 433.408Z" fill="#F7F8FB"/>
<path d="M593.504 635.186L592.854 563.94L417.059 663.399L417.709 734.646L593.504 635.186Z" fill="white"/>
<path opacity="0.3" d="M795.955 334.469L1182.91 111.109L1182.78 312.757L829.892 516.356L795.695 566.93L795.955 334.469Z" fill="url(#paint9_linear)"/>
<path d="M1224 189.766V135.031L1077.98 219.279V274.014L1224 189.766Z" fill="#26C3A0"/>
<path opacity="0.15" d="M895.294 326.148L980.071 277.264V294.945L895.294 343.83V326.148Z" fill="#F7F8FB"/>
<path opacity="0.15" d="M895.294 361.511L1058.74 267.252V284.934L895.294 379.193V361.511Z" fill="#F7F8FB"/>
<path opacity="0.15" d="M895.294 397.005L1093.32 282.724V300.406L895.294 414.686V397.005Z" fill="#F7F8FB"/>
<path d="M874.491 356.701C874.491 373.343 864.609 392.454 852.516 399.475C840.424 406.496 830.542 398.695 830.542 382.053C830.542 365.412 840.424 346.3 852.516 339.28C864.609 332.259 874.491 340.06 874.491 356.701Z" fill="#2ED1AB"/>
<path opacity="0.2" d="M920.389 542.228C912.588 546.648 906.347 557.569 906.347 566.54V606.194L880.081 621.405C872.28 625.826 866.039 636.747 866.039 645.717C866.039 654.688 872.28 658.329 880.081 653.908L906.347 638.827V678.48C906.347 687.451 912.588 691.092 920.389 686.671C928.191 682.251 934.432 671.33 934.432 662.359V622.705L960.698 607.624C968.499 603.204 974.74 592.283 974.74 583.312C974.74 574.341 968.499 570.701 960.698 575.121L934.432 590.202V550.549C934.432 541.448 928.191 537.808 920.389 542.228Z" fill="url(#paint10_linear)"/>
</g>
<defs>
<linearGradient id="paint0_linear" x1="-180.781" y1="872.5" x2="1278.67" y2="1063.21" gradientUnits="userSpaceOnUse">
<stop stop-color="#1DD7AA"/>
<stop offset="1" stop-color="#00856F"/>
</linearGradient>
<linearGradient id="paint1_linear" x1="822.634" y1="139.9" x2="885.178" y2="250.441" gradientUnits="userSpaceOnUse">
<stop stop-color="white"/>
<stop offset="1" stop-color="white" stop-opacity="0"/>
</linearGradient>
<linearGradient id="paint2_linear" x1="185.404" y1="790.49" x2="247.948" y2="901.031" gradientUnits="userSpaceOnUse">
<stop stop-color="white"/>
<stop offset="1" stop-color="white" stop-opacity="0"/>
</linearGradient>
<linearGradient id="paint3_linear" x1="743.107" y1="-10.4533" x2="380.94" y2="313.72" gradientUnits="userSpaceOnUse">
<stop stop-color="white"/>
<stop offset="1" stop-color="white" stop-opacity="0"/>
</linearGradient>
<linearGradient id="paint4_linear" x1="807.589" y1="32.4156" x2="445.422" y2="356.589" gradientUnits="userSpaceOnUse">
<stop stop-color="white"/>
<stop offset="1" stop-color="white" stop-opacity="0"/>
</linearGradient>
<linearGradient id="paint5_linear" x1="227.176" y1="287.586" x2="517.73" y2="343.201" gradientUnits="userSpaceOnUse">
<stop stop-color="white"/>
<stop offset="1" stop-color="white" stop-opacity="0"/>
</linearGradient>
<linearGradient id="paint6_linear" x1="780.549" y1="576.238" x2="509.998" y2="844.951" gradientUnits="userSpaceOnUse">
<stop stop-color="white"/>
<stop offset="1" stop-color="white" stop-opacity="0"/>
</linearGradient>
<linearGradient id="paint7_linear" x1="679.95" y1="639.528" x2="565.644" y2="890.806" gradientUnits="userSpaceOnUse">
<stop stop-color="white"/>
<stop offset="1" stop-color="white" stop-opacity="0"/>
</linearGradient>
<linearGradient id="paint8_linear" x1="656.652" y1="355.577" x2="577.563" y2="577.033" gradientUnits="userSpaceOnUse">
<stop stop-color="white"/>
<stop offset="1" stop-color="white" stop-opacity="0"/>
</linearGradient>
<linearGradient id="paint9_linear" x1="880.272" y1="253.7" x2="1080.04" y2="410.131" gradientUnits="userSpaceOnUse">
<stop stop-color="white"/>
<stop offset="1" stop-color="white" stop-opacity="0"/>
</linearGradient>
<linearGradient id="paint10_linear" x1="893.239" y1="592.941" x2="961.312" y2="646.668" gradientUnits="userSpaceOnUse">
<stop stop-color="white"/>
<stop offset="1" stop-color="white" stop-opacity="0"/>
</linearGradient>
<clipPath id="clip0">
<rect width="1300" height="900" fill="white"/>
</clipPath>
</defs>
</svg>
