<svg width="1300" height="900" viewBox="0 0 1300 900" fill="none" xmlns="http://www.w3.org/2000/svg">
<g clip-path="url(#clip0)">
<rect width="1300" height="900" fill="url(#paint0_linear)"/>
<path opacity="0.07" d="M144.124 487.789C159.786 478.668 171.131 478.421 178.161 487.049C185.19 495.554 188.643 509.975 188.643 530.313V639.889C188.643 660.72 190.616 677.976 194.439 691.658C198.262 705.832 204.798 715.94 213.8 721.856C222.556 727.896 234.395 729.498 249.44 726.663C264.116 723.951 282.49 716.309 304.442 703.614L314.924 697.574V611.293L301.852 618.812C286.19 627.933 275.708 629.043 270.405 622.387C264.855 615.977 262.019 602.542 262.019 582.204V485.693C262.019 460.549 259.553 440.704 254.62 426.036C249.687 411.492 239.945 402.124 225.269 397.934C239.945 376.856 249.687 356.272 254.62 336.058C259.553 315.844 261.896 293.164 261.896 268.019V171.508C261.896 151.171 264.732 134.654 270.282 121.712C275.461 109.016 285.943 98.1696 301.729 89.0485L314.801 81.5298V-4.75098L304.318 1.28867C282.244 14.1075 263.869 27.5427 249.317 41.8406C234.272 56.2618 222.433 71.6691 213.677 87.8159C204.551 104.209 198.139 121.712 194.316 140.324C190.493 158.443 188.52 177.918 188.52 198.748V308.325C188.52 328.662 185.067 347.151 178.037 363.668C171.008 380.308 159.662 393.126 144 402.124L144.124 487.789Z" fill="url(#paint1_linear)"/>
<path opacity="0.07" d="M541.835 170.399C526.173 179.52 514.828 179.766 507.799 171.138C500.769 162.633 497.316 148.212 497.316 127.874V18.2979C497.316 -2.53273 495.343 -19.7889 491.52 -33.4705C487.697 -47.6452 481.408 -57.8756 472.652 -63.9153C463.526 -69.8317 451.687 -71.434 437.012 -68.7224C421.967 -65.8874 403.469 -58.1222 381.517 -45.4266L371.035 -39.3869V46.8938L384.107 39.3751C399.769 30.2539 410.498 29.0214 416.047 35.4308C421.227 42.0867 423.94 55.5219 423.94 75.8595V172.371C423.94 197.515 426.406 217.36 431.339 232.028C436.272 246.572 446.015 255.94 460.69 260.13C446.015 281.208 436.272 301.792 431.339 322.006C426.406 342.22 424.063 364.9 424.063 390.045V486.556C424.063 506.893 421.474 523.41 416.171 536.106C410.621 549.048 399.892 560.018 384.231 569.016L371.158 576.534V662.815L381.641 656.775C403.592 644.08 422.09 630.521 437.135 616.1C451.811 601.802 463.65 586.518 472.775 570.125C481.531 553.978 487.82 536.599 491.643 517.863C495.466 499.744 497.44 480.146 497.44 459.439V349.862C497.44 329.525 500.893 311.036 507.922 294.52C514.951 277.88 526.297 265.061 541.959 256.063L541.835 170.399Z" fill="url(#paint2_linear)"/>
<path opacity="0.4" d="M193.452 524.766C209.114 515.645 220.46 515.399 227.489 524.027C234.518 532.532 237.971 546.953 237.971 567.29V676.867C237.971 697.698 239.945 714.954 243.768 728.635C247.591 742.81 254.127 752.917 263.129 758.834C271.885 764.873 283.724 766.476 298.769 763.641C313.444 760.929 331.819 753.287 353.77 740.591L364.253 734.552V648.271L351.18 655.79C335.519 664.911 325.036 666.02 319.734 659.364C314.184 652.955 311.348 639.52 311.348 619.182V522.671C311.348 497.526 308.881 477.682 303.948 463.014C299.016 448.469 289.273 439.102 274.598 434.911C289.273 413.834 299.016 393.25 303.948 373.035C308.881 352.821 311.224 330.142 311.224 304.997V208.486C311.224 188.148 314.061 171.632 319.61 158.689C324.79 145.994 335.272 135.147 351.057 126.026L364.129 118.507V32.2266L353.647 38.2662C331.696 50.9618 313.321 64.3969 298.646 78.6949C283.6 93.1161 271.761 108.523 263.006 124.67C253.88 141.064 247.467 158.566 243.644 177.178C239.821 195.42 237.848 214.895 237.848 235.726V345.302C237.848 365.64 234.395 384.129 227.366 400.645C220.336 417.162 209.114 430.104 193.329 439.102L193.452 524.766Z" fill="url(#paint3_linear)"/>
<path opacity="0.4" d="M591.164 207.376C575.502 216.497 564.156 216.744 557.127 208.116C550.098 199.611 546.645 185.19 546.645 164.852V55.2755C546.645 34.4448 544.672 17.1887 540.849 3.50701C537.026 -10.6677 530.736 -20.8981 521.981 -26.9378C512.855 -32.8542 501.016 -34.4565 486.341 -31.7448C471.295 -28.9099 452.797 -21.1446 430.846 -8.44903L420.364 -2.40938V83.8714L433.436 76.3526C449.098 67.2315 459.827 65.9989 465.376 72.4083C470.556 79.0643 473.269 92.4994 473.269 112.837V209.348C473.269 234.493 475.735 254.337 480.668 269.005C485.601 283.55 495.343 292.917 510.018 297.108C495.343 318.185 485.601 338.769 480.668 358.984C475.735 379.198 473.392 401.878 473.392 427.022V523.533C473.392 543.871 470.802 560.388 465.499 573.083C459.95 586.025 449.221 596.995 433.559 605.993L420.487 613.512V699.793L430.969 693.753C452.921 681.057 471.419 667.499 486.464 653.078C501.139 638.78 512.978 623.496 522.104 607.102C530.86 590.956 537.149 573.576 540.972 554.841C544.795 536.722 546.768 517.124 546.768 496.417V386.84C546.768 366.502 550.221 348.014 557.25 331.497C564.28 314.857 575.625 302.038 591.287 293.041L591.164 207.376Z" fill="url(#paint4_linear)"/>
<path opacity="0.15" d="M864.937 -54.9172L654.181 66.7386L654.304 571.234L865.061 449.579L864.937 -54.9172Z" fill="url(#paint5_linear)"/>
<path d="M904.523 22.6113L736.93 119.369V165.714L904.523 68.9564V22.6113Z" fill="white"/>
<path opacity="0.6" d="M838.916 224.263L677.858 317.199V389.429L838.916 296.492V224.263Z" fill="#EC5C86"/>
<path opacity="0.15" d="M839.04 136.872L677.735 229.932V246.695L839.04 153.635V136.872Z" fill="#F7F8FB"/>
<path opacity="0.15" d="M839.04 169.659L699.563 250.147V266.91L839.04 186.423V169.659Z" fill="#F7F8FB"/>
<path opacity="0.2" d="M864.937 -54.9172L654.181 66.7386V134.407L864.937 12.7515V-54.9172Z" fill="url(#paint6_linear)"/>
<path opacity="0.6" d="M812.279 9.66884C812.279 19.8993 818.322 24.7063 825.721 20.5156C833.12 16.2015 839.04 4.492 839.04 -5.73843C839.04 -15.9689 832.997 -20.7759 825.598 -16.5852C818.198 -12.2711 812.279 -0.561588 812.279 9.66884Z" fill="#EC5C86"/>
<path opacity="0.15" d="M605.962 412.848L395.206 534.503L395.329 1039L606.086 917.343L605.962 412.848Z" fill="url(#paint7_linear)"/>
<path d="M525.68 559.648L358.086 656.405V702.75L525.68 605.993V559.648Z" fill="#EC6089"/>
<path opacity="0.15" d="M579.942 607.595L418.761 700.655V772.761L579.942 679.701V607.595Z" fill="#F7F8FB"/>
<path opacity="0.15" d="M580.065 710.639L418.761 803.699V820.462L580.065 727.525V710.639Z" fill="#F7F8FB"/>
<path opacity="0.15" d="M580.065 740.961L440.588 821.449V838.212L580.065 757.724V740.961Z" fill="#F7F8FB"/>
<path opacity="0.2" d="M605.962 412.848L395.206 534.503V602.172L605.962 480.516V412.848Z" fill="url(#paint8_linear)"/>
<path opacity="0.2" d="M553.304 477.558C553.304 487.788 559.346 492.595 566.746 488.405C574.145 484.091 580.064 472.381 580.064 462.151C580.064 451.92 574.022 447.113 566.622 451.304C559.223 455.495 553.304 467.327 553.304 477.558Z" fill="#F7F8FB"/>
<path opacity="0.3" d="M642.342 482.734L1009.35 270.977L1009.22 462.15L674.652 655.296L642.342 703.243V482.734Z" fill="url(#paint9_linear)"/>
<path opacity="0.15" d="M736.683 474.847L817.089 428.501V445.265L736.683 491.61V474.847Z" fill="#F7F8FB"/>
<path opacity="0.15" d="M736.683 508.495L935.847 393.618V410.382L736.683 525.258V508.495Z" fill="#F7F8FB"/>
<path opacity="0.15" d="M736.683 542.144L976.913 403.479V420.242L736.683 558.908V542.144Z" fill="#F7F8FB"/>
<path d="M716.952 503.811C716.952 519.588 707.579 537.707 696.11 544.363C684.641 551.019 675.269 543.624 675.269 527.847C675.269 512.07 684.641 493.951 696.11 487.295C707.579 480.639 716.952 488.034 716.952 503.811Z" fill="#EC6089"/>
<path opacity="0.15" d="M973.09 136.872L1021.68 108.77V92.3762L973.09 120.479C969.143 122.821 963.347 127.382 958.414 134.531C953.112 142.173 949.289 151.787 949.289 162.264C949.289 173.85 952.248 180.383 957.798 182.355C963.101 184.08 969.267 181.122 973.09 178.903L993.068 167.317L993.191 167.194C994.918 166.208 997.631 165.222 999.727 165.838C1001.45 166.331 1003.55 168.18 1003.55 174.589C1003.55 180.999 1001.58 184.943 999.851 187.285C997.754 190.243 995.041 192.339 993.314 193.201L993.068 193.325L931.9 228.577V244.97L992.698 209.841C996.891 207.623 1002.93 203.062 1008.11 195.79C1013.79 187.778 1017.73 177.671 1017.73 166.331C1017.73 155.115 1013.79 149.322 1008.24 147.719C1003.06 146.24 997.014 148.459 992.821 150.924L972.966 162.387C970.13 163.989 967.91 164.729 966.554 164.236C965.444 163.866 963.471 162.264 963.471 154.005C963.471 148.582 965.197 145.131 966.924 142.666C968.897 139.954 971.487 137.735 973.09 136.872Z" fill="#F7F8FB"/>
<path d="M1007.25 110.494C1007.25 124.546 1015.51 131.078 1025.63 125.285C1035.74 119.492 1044 103.345 1044 89.294C1044 75.2425 1035.74 68.7099 1025.63 74.503C1015.39 80.4194 1007.25 96.5662 1007.25 110.494Z" fill="white"/>
<path d="M909.826 246.08C909.826 260.131 918.089 266.787 928.201 260.871C938.313 254.954 946.576 238.931 946.576 224.879C946.576 210.828 938.313 204.172 928.201 210.088C917.965 216.005 909.826 232.151 909.826 246.08Z" fill="white"/>
<path opacity="0.2" d="M778.735 674.648C771.336 678.962 765.417 689.193 765.417 697.821V735.415L740.506 749.713C733.106 754.027 727.187 764.257 727.187 772.885C727.187 781.39 733.23 784.841 740.506 780.65L765.417 766.352V803.946C765.417 812.451 771.459 815.902 778.735 811.711C786.135 807.397 792.054 797.167 792.054 788.539V750.945L816.965 736.647C824.364 732.333 830.284 722.103 830.284 713.475C830.284 704.97 824.241 701.519 816.965 705.709L792.054 720.007V682.414C792.054 673.786 786.135 670.334 778.735 674.648Z" fill="url(#paint10_linear)"/>
</g>
<defs>
<linearGradient id="paint0_linear" x1="-180.781" y1="872.5" x2="1278.67" y2="1063.21" gradientUnits="userSpaceOnUse">
<stop stop-color="#F3B2C6"/>
<stop offset="1" stop-color="#EB5581"/>
</linearGradient>
<linearGradient id="paint1_linear" x1="66.5001" y1="20.1702" x2="370.414" y2="547.169" gradientUnits="userSpaceOnUse">
<stop stop-color="white"/>
<stop offset="1" stop-color="white" stop-opacity="0"/>
</linearGradient>
<linearGradient id="paint2_linear" x1="212.744" y1="-66.4459" x2="516.658" y2="460.553" gradientUnits="userSpaceOnUse">
<stop stop-color="white"/>
<stop offset="1" stop-color="white" stop-opacity="0"/>
</linearGradient>
<linearGradient id="paint3_linear" x1="115.829" y1="57.1475" x2="419.743" y2="584.147" gradientUnits="userSpaceOnUse">
<stop stop-color="white"/>
<stop offset="1" stop-color="white" stop-opacity="0"/>
</linearGradient>
<linearGradient id="paint4_linear" x1="262.073" y1="-29.4685" x2="565.987" y2="497.531" gradientUnits="userSpaceOnUse">
<stop stop-color="white"/>
<stop offset="1" stop-color="white" stop-opacity="0"/>
</linearGradient>
<linearGradient id="paint5_linear" x1="650.32" y1="68.8996" x2="851.51" y2="417.64" gradientUnits="userSpaceOnUse">
<stop stop-color="white"/>
<stop offset="1" stop-color="white" stop-opacity="0"/>
</linearGradient>
<linearGradient id="paint6_linear" x1="792.589" y1="-53.8874" x2="728.504" y2="127.911" gradientUnits="userSpaceOnUse">
<stop stop-color="white"/>
<stop offset="1" stop-color="white" stop-opacity="0"/>
</linearGradient>
<linearGradient id="paint7_linear" x1="391.354" y1="536.695" x2="592.544" y2="885.437" gradientUnits="userSpaceOnUse">
<stop stop-color="white"/>
<stop offset="1" stop-color="white" stop-opacity="0"/>
</linearGradient>
<linearGradient id="paint8_linear" x1="533.623" y1="413.909" x2="469.539" y2="595.707" gradientUnits="userSpaceOnUse">
<stop stop-color="white"/>
<stop offset="1" stop-color="white" stop-opacity="0"/>
</linearGradient>
<linearGradient id="paint9_linear" x1="722.424" y1="406.23" x2="911.835" y2="554.609" gradientUnits="userSpaceOnUse">
<stop stop-color="white"/>
<stop offset="1" stop-color="white" stop-opacity="0"/>
</linearGradient>
<linearGradient id="paint10_linear" x1="752.974" y1="722.673" x2="817.535" y2="773.617" gradientUnits="userSpaceOnUse">
<stop stop-color="white"/>
<stop offset="1" stop-color="white" stop-opacity="0"/>
</linearGradient>
<clipPath id="clip0">
<rect width="1300" height="900" fill="white"/>
</clipPath>
</defs>
</svg>
