<svg width="1300" height="900" viewBox="0 0 1300 900" fill="none" xmlns="http://www.w3.org/2000/svg">
<g clip-path="url(#clip0)">
<rect width="1300" height="900" fill="url(#paint0_linear)"/>
<path opacity="0.07" d="M782.315 682.586C782.315 682.586 934.39 442.462 934.39 277.271C934.39 160.587 866.319 26.8896 782.315 -21.4973C698.312 -69.8841 630.241 -14.4987 630.241 102.185C630.241 265.928 782.315 682.586 782.315 682.586ZM782.315 95.7896C819.369 117.147 849.421 175.912 849.421 227.194C849.421 278.477 819.369 302.61 782.315 281.252C745.262 259.895 715.209 201.131 715.209 149.848C715.209 98.6856 745.262 74.4318 782.315 95.7896Z" fill="url(#paint1_linear)"/>
<path opacity="0.4" d="M734.038 718.786C734.038 718.786 886.113 478.661 886.113 313.47C886.113 196.787 818.041 63.0894 734.038 14.7026C650.035 -33.6843 581.963 21.7012 581.963 138.385C581.963 302.128 734.038 718.786 734.038 718.786ZM734.038 131.989C771.091 153.347 801.144 212.111 801.144 263.394C801.144 314.677 771.091 338.81 734.038 317.452C696.985 296.095 666.932 237.33 666.932 186.048C666.932 134.765 696.985 110.632 734.038 131.989Z" fill="url(#paint2_linear)"/>
<path opacity="0.3" d="M424.457 386.111L650.035 516.309V934.174L424.457 803.975V386.111Z" fill="url(#paint3_linear)"/>
<path opacity="0.15" d="M460.303 651.816L594.635 729.404V745.815L460.182 668.227L460.303 651.816Z" fill="#F7F8FB"/>
<path opacity="0.15" d="M474.184 692.481L580.757 753.9V770.31L474.184 708.891V692.481Z" fill="#F7F8FB"/>
<path d="M510.633 766.811L353.731 676.191V722.889L510.633 813.508V766.811Z" fill="white"/>
<path opacity="0.3" d="M535.495 523.308L488.545 496.158V480.351L535.495 507.5C539.358 509.672 544.91 514.258 549.617 521.136C554.686 528.496 558.427 537.787 558.427 547.923C558.427 559.025 555.531 565.42 550.22 567.23C545.151 568.919 539.116 566.023 535.495 563.851L516.184 552.75L516.064 552.629C514.374 551.664 511.719 550.699 509.667 551.302C507.977 551.785 506.046 553.474 506.046 559.749C506.046 565.902 507.977 569.764 509.546 572.056C511.598 574.832 514.133 576.883 515.822 577.728L516.064 577.848L575.204 611.997V627.804L516.546 593.897C512.564 591.846 506.65 587.381 501.701 580.262C496.149 572.539 492.408 562.765 492.408 551.785C492.408 540.925 496.149 535.374 501.58 533.805C506.65 532.357 512.443 534.409 516.426 536.943L535.495 548.044C538.271 549.613 540.323 550.337 541.772 549.854C542.858 549.492 544.789 548.044 544.789 539.959C544.789 534.771 543.099 531.392 541.53 529.099C539.599 526.324 537.064 524.273 535.495 523.308Z" fill="#F7F8FB"/>
<path d="M505.201 500.623C505.201 516.188 496.029 523.549 484.804 517.154C473.579 510.638 464.407 492.779 464.407 477.093C464.407 461.527 473.579 454.166 484.804 460.562C496.149 467.078 505.201 485.057 505.201 500.623Z" fill="white"/>
<path d="M605.378 638.181C605.378 653.747 596.205 661.108 584.98 654.713C573.756 648.197 564.583 630.338 564.583 614.652C564.583 599.086 573.756 591.725 584.98 598.121C596.326 604.636 605.378 622.616 605.378 638.181Z" fill="white"/>
<path opacity="0.3" d="M561.325 212.714L202.26 5.41101L202.38 192.563L529.824 381.525L561.566 428.464L561.325 212.714Z" fill="url(#paint4_linear)"/>
<path d="M164 78.4142V27.614L299.539 105.805V156.605L164 78.4142Z" fill="#0BA284"/>
<path opacity="0.15" d="M469.114 204.992L390.421 159.501V175.912L469.114 221.282V204.992Z" fill="#F7F8FB"/>
<path opacity="0.15" d="M469.114 237.813L317.401 150.33V166.741L469.114 254.344V237.813Z" fill="#F7F8FB"/>
<path opacity="0.15" d="M469.114 270.754L285.297 164.689V181.1L469.114 287.286V270.754Z" fill="#F7F8FB"/>
<path d="M488.425 233.228C488.425 248.673 497.598 266.411 508.823 272.927C520.047 279.442 529.22 272.203 529.22 256.757C529.22 241.312 520.047 223.574 508.823 217.058C497.598 210.663 488.425 217.903 488.425 233.228Z" fill="#0A9F82"/>
<path opacity="0.3" d="M705.795 544.545L1064.98 751.848L1065.1 939L737.658 749.918L706.036 760.295L705.795 544.545Z" fill="url(#paint5_linear)"/>
<path d="M960.46 784.789V733.989L1096 812.181V862.981L960.46 784.789Z" fill="#16C39C"/>
<path opacity="0.15" d="M798.248 643.37L876.94 688.74V705.151L798.248 659.78V643.37Z" fill="#F7F8FB"/>
<path opacity="0.15" d="M798.248 676.311L940.305 758.243V774.654L798.248 692.722V676.311Z" fill="#F7F8FB"/>
<path opacity="0.15" d="M798.248 709.133L982.065 815.198V831.608L798.248 725.543V709.133Z" fill="#F7F8FB"/>
<path d="M778.815 649.282C778.815 664.728 769.642 671.968 758.418 665.452C747.193 658.936 738.021 641.198 738.021 625.753C738.021 610.307 747.193 603.067 758.418 609.583C769.763 616.099 778.815 633.958 778.815 649.282Z" fill="#089B7F"/>
<path opacity="0.2" d="M311.97 516.671C230.381 411.933 289.4 374.286 311.97 435.584C334.54 400.47 393.56 506.173 311.97 516.671Z" fill="url(#paint6_linear)"/>
<path opacity="0.2" d="M1051.1 591.604L1008.26 626.235C1003.67 629.976 995.341 626.115 989.91 617.548C984.358 608.98 983.634 599.086 988.22 595.345L1006.2 580.865L937.649 541.287C930.408 537.064 924.615 527.048 924.615 518.723C924.615 510.397 930.408 507.018 937.649 511.121L1006.2 550.699L988.1 515.344C983.513 506.294 984.237 497.244 989.789 495.072C995.341 492.9 1003.55 498.571 1008.13 507.621L1051.1 591.604Z" fill="url(#paint7_linear)"/>
</g>
<defs>
<linearGradient id="paint0_linear" x1="-180.781" y1="872.5" x2="1278.67" y2="1063.21" gradientUnits="userSpaceOnUse">
<stop stop-color="#1DD7AA"/>
<stop offset="1" stop-color="#00856F"/>
</linearGradient>
<linearGradient id="paint1_linear" x1="1050.83" y1="197.782" x2="628.712" y2="369.179" gradientUnits="userSpaceOnUse">
<stop stop-color="white"/>
<stop offset="1" stop-color="white" stop-opacity="0"/>
</linearGradient>
<linearGradient id="paint2_linear" x1="1002.55" y1="233.982" x2="580.43" y2="405.378" gradientUnits="userSpaceOnUse">
<stop stop-color="white"/>
<stop offset="1" stop-color="white" stop-opacity="0"/>
</linearGradient>
<linearGradient id="paint3_linear" x1="674.16" y1="422.936" x2="473.988" y2="769.817" gradientUnits="userSpaceOnUse">
<stop stop-color="white"/>
<stop offset="1" stop-color="white" stop-opacity="0"/>
</linearGradient>
<linearGradient id="paint4_linear" x1="483.068" y1="137.746" x2="297.654" y2="282.955" gradientUnits="userSpaceOnUse">
<stop stop-color="white"/>
<stop offset="1" stop-color="white" stop-opacity="0"/>
</linearGradient>
<linearGradient id="paint5_linear" x1="860.138" y1="550.582" x2="906.549" y2="927.099" gradientUnits="userSpaceOnUse">
<stop stop-color="white"/>
<stop offset="1" stop-color="white" stop-opacity="0"/>
</linearGradient>
<linearGradient id="paint6_linear" x1="329.14" y1="439.588" x2="269.001" y2="491.67" gradientUnits="userSpaceOnUse">
<stop stop-color="white"/>
<stop offset="1" stop-color="white" stop-opacity="0"/>
</linearGradient>
<linearGradient id="paint7_linear" x1="1032.47" y1="584.125" x2="916.881" y2="506.496" gradientUnits="userSpaceOnUse">
<stop stop-color="white"/>
<stop offset="1" stop-color="white" stop-opacity="0"/>
</linearGradient>
<clipPath id="clip0">
<rect width="1300" height="900" fill="white"/>
</clipPath>
</defs>
</svg>
